<?xml version="1.0" standalone="no"?>
<!DOCTYPE svg PUBLIC "-//W3C//DTD SVG 1.1//EN" "http://www.w3.org/Graphics/SVG/1.1/DTD/svg11.dtd" >
<svg xmlns="http://www.w3.org/2000/svg" xmlns:xlink="http://www.w3.org/1999/xlink" version="1.1">
<metadata>
Created by FontForge 20180930 at Mon Oct  8 19:19:32 2018
 By root
Typeface (c) 538Fonts. 2015. All Rights Reserved
</metadata>
<defs>
<font id="InsideOutLowercase" horiz-adv-x="910" >
  <font-face 
    font-family="Inside Out Lowercase"
    font-weight="400"
    font-stretch="normal"
    units-per-em="2048"
    panose-1="2 0 5 0 0 0 0 0 0 0"
    ascent="1638"
    descent="-410"
    x-height="990"
    cap-height="1415"
    bbox="-235 -502.45 2048 1811"
    underline-thickness="150"
    underline-position="-292"
    unicode-range="U+0020-2122"
  />
    <missing-glyph />
    <glyph glyph-name="space" unicode=" " horiz-adv-x="508" 
 />
    <glyph glyph-name="space" unicode="&#xa0;" horiz-adv-x="508" 
 />
    <glyph glyph-name="exclam" unicode="!" horiz-adv-x="374" 
d="M105 370q-2 35 -13 312t-19 734q156 8 263 -9q-1 -449 -60 -1033q-35 -13 -171 -4zM319 247q20 -154 0 -233q-105 -17 -258 -9q0 211 2 246q222 9 256 -4z" />
    <glyph glyph-name="quotedbl" unicode="&#x22;" horiz-adv-x="700" 
d="M35 1041q62 139 48 377q146 3 253 -4q0 -161 -130 -372q-35 -4 -171 -1zM345 1041q62 139 48 377q146 3 253 -4q0 -161 -130 -372q-35 -4 -171 -1z" />
    <glyph glyph-name="numbersign" unicode="#" horiz-adv-x="1035" 
d="M236 464q0 253 -3 463q-95 -4 -169 -6q-12 90 -8 222q89 1 173 3q-2 80 -5 152q-7 80 -5 115q192 9 221 -4q2 -134 4 -258q91 4 172 7q-1 124 -2 256q132 8 223 -9q0 -103 -1 -234q35 3 68 6q52 8 75 7q8 -191 0 -221q-75 -4 -145 -8q-2 -214 -6 -481q74 3 154 6
q7 -132 -3 -223q-68 -2 -155 -4q-2 -121 -4 -251q-29 -13 -221 -4q-2 35 5 115q2 66 4 138q-72 -1 -152 -1q1 -137 1 -244q-91 -17 -223 -9q1 130 2 251h-172q-9 30 -6 221q23 3 76 -3q48 -1 102 -2zM448 936q4 -261 6 -471q75 1 159 3q3 214 3 476q-89 -4 -168 -8z" />
    <glyph glyph-name="dollar" unicode="$" 
d="M399 -17h-13q-71 1 -142 27q-121 43 -145 106q-45 86 -42 133q-10 88 -13 283q75 4 269 8q7 -72 11 -222q-2 -84 61 -107l6 -3q4 -1 8 -3v421q-115 34 -150 47q-179 64 -189 182q-21 136 -8 370q6 31 10 40q39 108 218 151q58 9 111 11q-3 87 -2 126q114 11 132 -5
q1 -65 1 -128q53 -7 100 -24q151 -55 166 -231q18 -160 11 -178q-175 -3 -197 1h-3q8 203 -47 223q-6 9 -28 17q1 -199 2 -377q49 -10 114 -21l15 -6q139 -50 174 -277q13 -61 -6 -247q-6 -50 -22 -93l-5 -15q-59 -162 -265 -198v-188q-54 -21 -133 -11q0 96 1 188z
M395 1236q-21 -3 -43 -7q-55 -21 -73 -74q-34 -93 13 -193q34 -53 103 -78l3 -1q-1 190 -3 353zM530 204q12 3 24 7q25 17 29 28l3 9q30 82 6 259q-13 51 -64 76q1 -206 2 -379z" />
    <glyph glyph-name="percent" unicode="%" horiz-adv-x="1259" 
d="M1147 1445l-785 -1442l-229 -8l-2 1l756 1452h114q48 -4 146 -3zM419 1443q89 -28 99 -132q22 -104 15 -339q-8 -76 -21 -110q-37 -92 -177 -96q-102 -3 -151 13q-82 26 -105 124q-19 64 -23 179q-3 187 20 246l6 15q22 57 95 98q79 29 164 18q36 -2 78 -16zM232 1301
l-3 -10q-23 -57 -5 -306q11 -84 29 -93q13 -13 31 -19q49 -16 100 6q22 18 29 34q19 49 1 328q-6 71 -33 80q0 1 -7 3l-6 2q-118 21 -136 -25zM852 -1q-88 29 -98 132q-22 105 -15 340q8 75 21 109q36 92 177 96q102 4 151 -12q82 -27 105 -125q19 -64 23 -179
q3 -187 -20 -245l-6 -16q-22 -56 -95 -97q-79 -29 -165 -18q-35 1 -78 15zM1039 142l4 10q23 57 4 305q-10 84 -28 94q-13 13 -31 18q-49 16 -101 -6q-22 -17 -28 -33q-19 -50 -2 -328q7 -71 34 -80q-1 -1 7 -4l6 -2q117 -20 135 26z" />
    <glyph glyph-name="ampersand" unicode="&#x26;" horiz-adv-x="965" 
d="M622 619l-141 -5q-159 11 -185 -77q-24 -207 5 -290l3 -8q4 -12 30 -29q90 -28 162 -2l7 2q93 23 109 120q10 60 10 289zM621 848q-1 54 -2 113q144 -3 219 -8q0 -54 1 -103q45 0 95 1l-5 -221l-90 -3q-1 -318 -8 -379q3 -46 -42 -133q-25 -62 -145 -106
q-71 -25 -142 -26q-333 -4 -410 208l-6 16q-15 42 -21 92q-19 187 -6 277q17 106 144 161q-117 47 -130.5 150.5t-0.5 336.5q7 31 10 41q39 108 218 151q202 30 342 -21q152 -55 166 -231q8 -100 2 -117q-165 -3 -188 0l-2 1q7 142 -47 162q-8 10 -32 19q-58 21 -169 0
q-54 -22 -73 -74q-34 -93 13 -253q34 -54 71 -55q23 -1 238 1z" />
    <glyph glyph-name="quotesingle" unicode="'" horiz-adv-x="374" 
d="M35 1041q62 139 48 377q146 3 253 -4q0 -161 -130 -372q-35 -4 -171 -1z" />
    <glyph glyph-name="parenleft" unicode="(" horiz-adv-x="564" 
d="M477 1575l2 -1q11 -3 5 -162h-15q-154 -39 -206 -205l-3 -8q-25 -78 -10 -455q5 -103 26 -372q23 -245 30 -273q9 -67 117 -84q16 -5 69 -12l3 -168q-7 -21 -92 -11q-29 -4 -55 5q-165 47 -218 141q-53 124 -49 260q-4 2 -8 84l-11 233q-7 263 -2 496q2 195 29 279l10 31
q37 117 150 178q113 52 228 44z" />
    <glyph glyph-name="parenright" unicode=")" horiz-adv-x="564" 
d="M303 1531q114 -61 151 -178l10 -31q27 -84 29 -279q5 -233 -2 -496l-11 -233q-4 -82 -8 -84q4 -136 -49 -260q-53 -94 -219 -141q-26 -9 -54 -5q-85 -10 -92 11l3 168q53 7 69 12q108 17 117 84q7 28 29 273q22 269 27 372q15 377 -10 455l-3 8q-52 166 -206 205h-15
q-6 159 4 162l3 1q114 8 227 -44z" />
    <glyph glyph-name="asterisk" unicode="*" horiz-adv-x="627" 
d="M269 1275l2 134q67 2 117 -2q3 -12 -1 -110l66 68q49 -42 81 -79q-5 -9 -72 -75l124 -2q3 -67 -2 -117q-12 -3 -125 2q67 -61 84 -75q-6 -12 -76 -79l-3 -1q-2 0 -79 71q1 -93 3 -116q-14 -3 -115 2l-2 1q-2 1 -2 112q-60 -64 -73 -81q-12 6 -79 76l-1 2q0 3 80 89
q-101 -1 -124 -3q-4 14 1 115l1 2q2 2 98 2l-66 65q42 49 79 81q10 -6 84 -82z" />
    <glyph glyph-name="plus" unicode="+" horiz-adv-x="892" 
d="M560 765h115l164 -5q5 -125 -4 -220q-26 -6 -219 8h-55q1 -219 7 -278q-26 -7 -216 3l-4 2q-4 3 -5 273q-211 -2 -269 -8q-7 26 3 216l2 4q3 5 264 5v106l5 164q125 5 220 -4q6 -27 -8 -219v-47z" />
    <glyph glyph-name="comma" unicode="," horiz-adv-x="374" 
d="M35 -164q62 139 48 377q146 3 253 -4q0 -161 -130 -372q-35 -4 -171 -1z" />
    <glyph glyph-name="hyphen" unicode="-" horiz-adv-x="597" 
d="M539 740q5 -125 -4 -220q-26 -6 -219 8q-153 2 -242 -8q-7 26 3 216l2 4q5 7 296 5z" />
    <glyph glyph-name="hyphen" unicode="&#xad;" horiz-adv-x="597" 
d="M539 740q5 -125 -4 -220q-26 -6 -219 8q-153 2 -242 -8q-7 26 3 216l2 4q5 7 296 5z" />
    <glyph glyph-name="period" unicode="." horiz-adv-x="374" 
d="M319 247q20 -154 0 -233q-105 -17 -258 -9q0 211 2 246q222 9 256 -4z" />
    <glyph glyph-name="slash" unicode="/" horiz-adv-x="1123" 
d="M1095 1445l-785 -1442l-229 -8l-2 1l756 1452h114q47 -4 146 -3z" />
    <glyph glyph-name="zero" unicode="0" horiz-adv-x="962" 
d="M701 1361q161 -57 179 -264q39 -208 26 -676q-14 -150 -38 -219q-65 -183 -320 -190q-184 -7 -274 25q-147 52 -189 247q-35 129 -42 357q-5 373 37 489l11 31q40 113 171 194q143 58 298 36q64 -3 141 -30zM354 1123l-7 -20q-41 -114 -8 -609q19 -167 52 -186
q23 -26 56 -38q89 -31 182 13q40 34 51 67q35 98 3 653q-12 142 -61 159q1 2 -12 7l-11 4q-213 41 -245 -50z" />
    <glyph glyph-name="one" unicode="1" horiz-adv-x="501" 
d="M230 5q-24 9 -27 1106q-26 0 -118 -8l-4 1l-13 115q142 41 245 163l142 5q-9 -983 -7 -1374q-138 -16 -218 -8z" />
    <glyph glyph-name="two" unicode="2" 
d="M60 555q10 119 189 183q47 17 241 75l18 6q69 25 84 84q24 177 -6 260l-3 8q-4 12 -29 29q-90 28 -163 2l-6 -2q-63 -23 -61 -108q-4 -149 -11 -221q-194 3 -269 8q3 195 13 283q-3 46 42 133q24 62 145 106q71 25 142 26q333 4 410 -208l5 -16q16 -42 22 -92
q19 -187 6 -247q-35 -228 -174 -278l-15 -5q-181 -31 -234 -50l-11 -4q-69 -25 -103 -79q-45 -95 -14 -190q197 0 538 8l4 -1l13 -224q-644 -34 -777 -29q-17 407 4 543z" />
    <glyph glyph-name="three" unicode="3" 
d="M586 902q47 160 13 253q-19 52 -73 74q-111 21 -169 0q-24 -9 -32 -19q-54 -20 -47 -222l-2 -1q-23 -3 -198 0q-6 17 12 177q14 176 166 231q140 51 342 21q179 -43 218 -151q3 -10 10 -41q13 -233 0 -336.5t-131 -150.5q128 -55 144 -161q13 -90 -6 -277q-6 -50 -21 -92
l-6 -16q-77 -212 -410 -208q-71 1 -142 26q-120 44 -145 106q-45 87 -42 133q-10 88 -13 243q75 5 219 8q-3 -72 13 -169t109 -120l7 -2q72 -26 162 2q26 17 30 29l3 8q29 83 5 290q-26 88 -296 78q-2 1 -4 1v226q12 -3 131 1.5t153 58.5z" />
    <glyph glyph-name="four" unicode="4" horiz-adv-x="885" 
d="M824 1355l4 -118q-2 -759 8 -1227l-4 -10q-43 -16 -198 -6l-7 2l-7 141l-13 352l-17 10q-115 10 -512 1l-11 530l-3 234q151 17 275 9q11 -31 8 -208q-4 -319 7 -322l3 -1q46 -4 174 0q54 -4 58 8q0 502 -6 602q91 13 241 3z" />
    <glyph glyph-name="five" unicode="5" 
d="M57 1426q133 5 777 -29l-13 -224l-4 -1q-341 8 -518 8l-13 -237q192 -26 355 -86l15 -5q139 -50 174 -278q13 -60 -6 -247q-6 -50 -22 -92l-5 -16q-77 -212 -410 -208q-71 1 -142 26q-121 44 -145 106q-45 87 -42 133q-10 88 -13 223q75 5 269 8q7 -72 11 -161
q-2 -85 61 -108l6 -2q73 -26 163 2q25 17 29 29l3 8q30 83 6 260q-15 59 -84 84l-18 6q-194 58 -361 61l-92 120q2 213 19 620z" />
    <glyph glyph-name="six" unicode="6" 
d="M272 528q12 -313 52 -328q8 -10 32 -19q58 -21 169 0q54 22 73 74q34 123 -13 273q-34 54 -104 79l-11 4q-110 9 -198 -83zM46 873q-10 64 8 238q6 50 21 92l6 16q77 212 410 208q71 -1 142 -26q120 -44 145 -106q45 -87 42 -133q10 -88 13 -223q-75 -5 -269 -8
q-7 72 -11 161q2 85 -61 108l-7 2q-72 26 -162 -2q-26 -17 -30 -29l-3 -8q-47 -103 -40 -412q85 66 208 75t170 -8q178 -64 188 -183q42 -210 9 -449q-7 -31 -10 -41q-39 -108 -218 -151q-202 -30 -342 21q-175 70 -192 428.5t-17 429.5z" />
    <glyph glyph-name="seven" unicode="7" horiz-adv-x="763" 
d="M172 5q-24 9 273 1106q-146 0 -368 -8l-4 1l-12 105q-7 28 -1 150q525 33 667 28l-307 -1374q-168 -16 -248 -8z" />
    <glyph glyph-name="eight" unicode="8" 
d="M444 611q-126 -15 -144 -74q-24 -207 5 -290l3 -8q4 -12 30 -29q57 -18 106 -14h14q49 -4 106 14q26 17 30 29l3 8q29 83 5 290q-17 59 -144 74h-14zM439 1238q-29 -3 -63 -9q-54 -22 -73 -74q-34 -93 13 -253q30 -46 149 -56q92 10 121 56q47 160 13 253q-19 52 -73 74
q-34 6 -87 9zM458 1427q66 0 140 -11q179 -43 218 -151q3 -10 10 -41q13 -233 0 -336.5t-131 -150.5q128 -55 144 -161q13 -90 -6 -277q-6 -50 -21 -92l-6 -16q-69 -190 -362 -207h-6q-273 17 -342 207l-6 16q-15 42 -21 92q-19 187 -6 277q16 106 144 161
q-118 47 -131 150.5t0 336.5q7 31 10 41q39 108 218 151q74 11 130 11h24z" />
    <glyph glyph-name="nine" unicode="9" 
d="M610 882q-12 313 -52 328q-8 10 -32 19q-58 21 -169 0q-54 -22 -73 -74q-34 -123 13 -273q34 -54 104 -79l11 -4q109 -9 198 83zM836 537q10 -64 -8 -238q-6 -50 -21 -92l-6 -16q-77 -212 -410 -208q-71 1 -142 26q-120 44 -145 106q-45 87 -42 133q-10 88 -13 173
q75 5 269 8q7 -72 11 -111q-2 -85 61 -108l7 -2q72 -26 162 2q26 17 30 29l3 8q47 103 40 412q-85 -66 -208 -75t-170 8q-178 64 -188 183q-42 210 -9 449q7 31 10 41q39 108 218 151q202 30 342 -21q175 -70 192 -428.5t17 -429.5z" />
    <glyph glyph-name="colon" unicode=":" horiz-adv-x="374" 
d="M319 247q20 -154 0 -233q-105 -17 -258 -9q0 211 2 246q222 9 256 -4zM319 1047q20 -154 0 -233q-105 -17 -258 -9q0 211 2 246q222 9 256 -4z" />
    <glyph glyph-name="semicolon" unicode=";" horiz-adv-x="374" 
d="M63 806q-2 35 -2 246q153 8 258 -9q20 -79 0 -233q-34 -13 -256 -4zM35 -231q62 171 48 463q146 4 253 -4q0 -198 -130 -457q-35 -5 -171 -2z" />
    <glyph glyph-name="less" unicode="&#x3c;" horiz-adv-x="993" 
d="M905 306q-28 1 -838 270q-6 10 -6 216l1 2q364 120 863 297h2q6 -33 4 -153l-1 -3l-588 -249l-1 -2l2 -1q309 -98 589 -173q1 -41 -27 -201v-3z" />
    <glyph glyph-name="equal" unicode="=" horiz-adv-x="1111" 
d="M1053 610q11 -125 -10 -220q-55 -6 -463 8q-324 2 -513 -8q-15 26 7 216l3 4q11 7 628 5zM705 688q-617 -1 -628 6l-3 4q-22 189 -7 216q189 -10 513 -9q408 15 463 9q21 -95 10 -220z" />
    <glyph glyph-name="greater" unicode="&#x3e;" horiz-adv-x="993" 
d="M89 1091q27 -1 837 -269q6 -10 6 -217l-1 -2q-364 -119 -863 -297l-2 1q-6 33 -4 153l1 2l588 250l1 2l-2 1q-309 98 -589 173q-1 41 27 201z" />
    <glyph glyph-name="question" unicode="?" 
d="M386 1427q333 4 410 -208l6 -16q15 -42 21 -92q19 -187 6 -247q-35 -228 -174 -278l-15 -5q-161 -31 -213 -50l-11 -4q-70 -25 -87 -52t-34 -107l-236 1q12 305 190 369q47 17 242 75l17 6q69 25 84 84q24 177 -5 260l-3 8q-5 12 -30 29q-90 28 -162 2l-7 -2
q-63 -23 -61 -108q-4 -149 -11 -221q-194 3 -269 8q3 195 13 283q-3 46 42 133q25 62 145 106q71 25 142 26zM305 247q20 -154 0 -233q-104 -17 -258 -9q0 211 2 246q222 9 256 -4z" />
    <glyph glyph-name="at" unicode="@" horiz-adv-x="1293" 
d="M753 491q-6 -8 -25 -15q-45 -16 -132 0q-57 17 -70 50.5t-5 66t110 51.5l8 4q36 13 154 34q1 -24 2 -51q-17 -131 -42 -140zM1248 651.5q7 240.5 -36 456.5q-19 214 -196 275q-129 28 -199 31q-378 23 -535 -38q-144 -85 -188 -202l-12 -32q-46 -122 -41 -509
q8 -237 47 -371q46 -203 207 -257q99 -33 509 -26q318 7 392 191l-169 63q-73 -94 -262 -99q-303 -6 -376 20q-120 43 -154 201q-28 104 -34 289q-4 302 30 397l9 25q33 91 139 157q116 47 396 29q52 -2 146 -24q131 -47 146 -214q30 -163 26 -356.5t-30 -210t-55.5 0
t-24.5 92.5q-13 325 -14 328h-3q0 14 -3 29q-4 39 -16 71l-5 13q-60 165 -319 162q-55 -1 -111 -20q-93 -35 -113 -83q-35 -68 -32 -103l-3 -57q59 -4 210 -7q-12 80 48 93l6 2q56 20 126 -2q20 -13 23 -22l2 -7q24 -108 -61 -127l-13 -5q-152 -45 -189 -58
q-138 -50 -150.5 -122t-2.5 -145q5 -24 7 -32q31 -84 170 -117q111 -24 204 16q29 10 77 49q29 -69 131.5 -88.5t195.5 42t100 302z" />
    <glyph glyph-name="A" unicode="A" horiz-adv-x="1084" 
d="M582 1403q48 -127 194 -606q30 -68 149 -445q23 -88 123 -400q-167 -41 -251 -52q-137 386 -170 453q-139 1 -257 -7q-60 -254 -78 -342l-236 12q29 209 253 1151l40 188l4 14q74 15 229 34zM388 538q188 -3 221 0q-51 227 -125 444q-19 -62 -96 -444z" />
    <glyph glyph-name="B" unicode="B" horiz-adv-x="791" 
d="M36 1345q16 -290 28 -560.5t20 -783.5q371 -16 510 29q55 25 113 93l22 68q27 152 0 308q-6 184 -128 255q72 75 82 103q6 -2 14 23q59 177 -30 386q-36 74 -129 105q-109 36 -498 -14zM369 1235q144 2 116 -333l-2 -6q-26 -81 -152 -66q-34 4 -74 4q-5 66 -28 390
q22 9 140 11zM418 678q113 -38 95 -436q-40 -121 -201 -91h-51q-4 46 3 290q-5 47 -4 234q81 12 158 3z" />
    <glyph glyph-name="C" unicode="C" horiz-adv-x="905" 
d="M635 1394l16 -4q223 -68 207 -516l-238 3l-18 205q-21 85 -66 99l-22 6q-142 19 -175 -91q-54 -175 -32 -567q28 -331 156 -370q105 -13 147 11q52 34 75 111q27 88 15 287q120 10 160 6q18 -52 7 -249q-4 -56 -16 -98l-8 -25q-51 -170 -287 -201q-187 -12 -265 11
q-216 66 -223 446q-38 549 21 745l2 6q61 200 333 202q126 8 211 -17z" />
    <glyph glyph-name="D" unicode="D" horiz-adv-x="984" 
d="M609 1418l32 -11q159 -50 252 -275q55 -171 60 -408q8 -243 -36 -379q-109 -343 -490 -335l-301 -2q-33 542 -73 1320q-10 81 -6 94q465 24 526 5q11 -1 36 -9zM276 1213l40 -931q103 -12 184 6q114 24 150 137q33 104 11 503q-18 248 -152 290q-56 18 -233 -5z" />
    <glyph glyph-name="E" unicode="E" horiz-adv-x="818" 
d="M745 1403q-5 -205 3 -320q-172 -1 -425 -18q5 -233 10 -278q188 14 367 -6q26 -1 58 0q4 -19 -1 -179q-12 -14 -188 -11q-267 -20 -312 -30q-14 -179 -7 -327h285q123 9 259 2q0 -61 -24 -215q-142 -3 -730 -33q4 736 -3 1053l-15 346l1 2q108 8 495 14q194 12 227 0z
" />
    <glyph glyph-name="F" unicode="F" horiz-adv-x="884" 
d="M821 1352q6 -50 3 -176l-5 -14l-192 -13q-190 -9 -253 -20q-1 -4 -5 -3l2 -270q0 -35 7 -39l3 -1q284 5 302 -1q8 -114 7 -274q-39 4 -82 1l-288 -8q5 -271 18 -541q-172 -6 -239 -2q1 632 -21 1346q231 5 743 15z" />
    <glyph glyph-name="G" unicode="G" horiz-adv-x="945" 
d="M545 1429h39q192 0 268 -115q82 -111 87 -451q-138 -9 -191 -1v42q0 343 -185 331q-121 -4 -160 -48q-93 -100 -98.5 -488t43 -452.5t109.5 -84t140 23t63 253.5h-209l1 32l6 234q142 -4 273 -4q144 0 164 -6q6 -149 6 -213v-49q0 -320 -181 -405q-119 -38 -202 -38
q-357 0 -449 275q-49 119 -49 475q0 520 241 629q109 60 284 60z" />
    <glyph glyph-name="H" unicode="H" horiz-adv-x="885" 
d="M824 1355l4 -118q-2 -759 8 -1357l-4 -10q-43 -16 -168 -6l-7 2l-7 141l-13 482l-17 10q-145 10 -274 6l-9 -16q4 -91 2 -364l8 -142q-93 5 -259 6q-15 6 -7 85q-4 2 -1 68q2 6 -13 888l-3 234q151 17 275 9q11 -31 8 -208q-4 -279 7 -282l3 -1q46 -4 174 0q54 -4 58 8
q0 462 -6 562q91 13 241 3z" />
    <glyph glyph-name="I" unicode="I" horiz-adv-x="368" 
d="M312 1411q20 -954 20 -1403q-107 -17 -263 -9q8 827 -12 1301q-8 80 -6 115q226 9 261 -4z" />
    <glyph glyph-name="J" unicode="J" horiz-adv-x="946" 
d="M305 459q6 -196 74 -218q49 -25 136 4q3 1 27 19q29 37 36 174q8 413 29 785q-1 131 2 143h287q-6 -200 -24 -460q-5 -401 -9 -481q9 -335 -189 -402q-36 -12 -93 -22q-414 -62 -493 171l-4 13q-33 97 -35 271z" />
    <glyph glyph-name="K" unicode="K" horiz-adv-x="929" 
d="M691 1383q92 -42 157 -92q-148 -334 -323 -680q-6 2 -24 -49q59 -81 378 -625q-5 -14 -140 -32l-124 -17q-46 79 -230 417q-73 122 -87 134l-1 -3v-214q6 -29 7 -220q-5 -15 -199 -5q-4 12 -6 154q-21 951 -34 1211q37 11 247 8q21 -127 23 -335q17 -271 12 -310l7 -2
q18 -6 192 397q16 29 66 129.5t75 135.5z" />
    <glyph glyph-name="L" unicode="L" horiz-adv-x="763" 
d="M313 1385q23 -9 -1 -457q1 -78 -11 -321q3 -134 0 -246l8 -82q177 0 398 8l4 -1l13 -104q6 -29 0 -150q-524 -34 -667 -29q10 984 8 1375q167 15 248 7z" />
    <glyph glyph-name="M" unicode="M" horiz-adv-x="1233" 
d="M1101 1297q18 -71 46.5 -476.5t43.5 -747.5q6 -38 1 -54q-86 -12 -243 -37q-40 661 -46 778q-50 -174 -146 -566q-99 -5 -186 -15q-32 63 -117.5 307.5t-146.5 371.5q1 -57 44 -838q-75 -15 -221 -37q-11 3 -16 293q-35 647 -39 1094q103 13 326 17q75 -171 216 -547
q73 -186 77 -188l12 43q80 337 161 601q39 10 234 1z" />
    <glyph glyph-name="N" unicode="N" horiz-adv-x="912" 
d="M829 1403q8 -277 10 -621q5 -107 6 -507q4 -63 12 -380q-42 -10 -227 3l-2 1q-22 53 -98.5 218.5t-291.5 695.5v-2q5 -356 -8 -796q-86 -12 -178 -10q13 665 -11 1301l3 14q90 5 208 1l2 -1q62 -144 179 -452q93 -219 130 -280l1 2q-1 65 -19 452q-1 104 -11 355l2 4
q71 3 293 2z" />
    <glyph glyph-name="O" unicode="O" horiz-adv-x="962" 
d="M701 1361q161 -57 179 -264q39 -208 26 -676q-14 -150 -38 -219q-65 -183 -320 -190q-184 -7 -274 25q-147 52 -189 247q-35 129 -42 357q-5 373 37 489l11 31q40 113 171 194q143 58 298 36q64 -3 141 -30zM363 1077l-7 -20q-41 -114 -8 -609q19 -167 52 -186
q23 -26 56 -38q89 -31 182 13q40 34 51 67q35 98 3 653q-12 142 -61 159q1 2 -12 7l-11 4q-213 41 -245 -50z" />
    <glyph glyph-name="P" unicode="P" horiz-adv-x="876" 
d="M606 1345q210 -70 207 -337q3 -201 -27 -291q-41 -125 -201 -209q-61 -31 -194 -33q-30 6 -64 3l17 -447q-59 -24 -237 -20q-13 146 -24 420t-27 917q53 22 306 24q173 -3 244 -27zM327 1115q7 -120 12 -432l4 -1q240 -16 281 108l5 14q28 85 -4 223q-36 78 -103 101
q-185 17 -195 -13z" />
    <glyph glyph-name="Q" unicode="Q" horiz-adv-x="1041" 
d="M628 425q5 208 -14 540q-12 142 -61 159q1 2 -12 7l-11 4q-213 41 -245 -50l-7 -20q-41 -114 -8 -609q19 -167 52 -186q23 -26 56 -38q69 -24 141 -3q-62 48 -85 62q-68 44 -94 67q95 162 126 181q105 -70 162 -114zM738 53q-76 -38 -190 -41q-184 -7 -274 25
q-147 52 -189 247q-35 129 -42 357q-5 373 37 489l11 31q40 113 171 194q143 58 298 36q64 -3 141 -30q161 -57 179 -264q39 -208 26 -676q-9 -93 -21 -155q107 -84 145 -114q-53 -94 -157 -210q-73 61 -135 111z" />
    <glyph glyph-name="R" unicode="R" horiz-adv-x="879" 
d="M643 1383l19 -8q165 -69 185 -261.5t-20 -298.5l-3 -7q-36 -98 -152 -128l-1 -4l6 -2q109 -41 131 -306q25 -155 33 -336q9 -105 4 -117q-188 7 -241 12q6 389 -55 505q-38 44 -72 57q-53 20 -194 17q14 -298 14 -485q-193 -17 -243 -13q5 110 -6 724t8 663
q462 33 587 -12zM295 1190q5 -164 22 -414l6 -6q164 -20 208 19q1 3 18 30q54 333 -69 379l-6 3q-85 21 -179 -11z" />
    <glyph glyph-name="S" unicode="S" 
d="M634 1401q120 -44 145 -106q45 -87 42 -133q10 -88 13 -283q-75 -5 -269 -8q-7 72 -11 221q2 85 -61 108l-7 2q-72 26 -162 -2q-26 -17 -30 -29l-3 -8q-29 -83 -5 -260q15 -59 84 -84l17 -6q195 -58 242 -75q178 -64 188 -183q22 -136 9 -369q-7 -31 -10 -41
q-39 -108 -218 -151q-202 -30 -342 21q-152 55 -166 231q-18 160 -12 177q175 3 198 0l2 -1q-7 -202 47 -222q8 -10 32 -19q58 -21 169 0q54 22 73 74q34 93 -13 193q-34 54 -104 79l-11 4q-52 19 -233 50l-15 5q-139 50 -174 278q-13 60 6 247q6 50 21 92l6 16
q77 212 410 208q71 -1 142 -26z" />
    <glyph glyph-name="T" unicode="T" horiz-adv-x="1004" 
d="M965 1419l-2 -196q-10 -4 -146 -4l-207 -10q-10 -616 11 -1209q-70 -8 -201 -6q-1 -2 -48 -3q-7 74 -3 224q8 271 -12 586l-10 326q-14 5 -311 8l-2 1q0 124 -7 249q32 8 235 7q267 5 703 27z" />
    <glyph glyph-name="U" unicode="U" horiz-adv-x="946" 
d="M871 1431q35 -456 21 -975q-1 -174 -34 -271l-5 -13q-79 -233 -493 -171q-57 10 -92 22q-198 67 -190 402q-4 80 -8 481q-19 260 -25 460h288q3 -12 1 -143q22 -372 29 -785q8 -137 36 -174q24 -18 27 -19q88 -29 196 -4q48 22 57 47l6 19q41 122 21 421q-7 435 -16 631
l-9 65q50 12 190 7z" />
    <glyph glyph-name="V" unicode="V" horiz-adv-x="993" 
d="M60 1313q219 38 276 36q75 -532 140 -955l1 -3l3 1l274 956l3 1q165 2 209 -6l1 -3q-242 -833 -406 -1332l-3 -1q-283 1 -296 9q-203 1258 -205 1296z" />
    <glyph glyph-name="W" unicode="W" horiz-adv-x="1292" 
d="M266 1414l194 -1029q147 906 161 958q119 -12 231 -17q96 -642 128 -732q82 515 102 754h31h167q-147 -1261 -170 -1342q-153 0 -253 11q-62 287 -105.5 485t-64.5 279q-17 -64 -43.5 -286t-74.5 -495l-276 11q-186 973 -266 1360q73 26 239 43z" />
    <glyph glyph-name="X" unicode="X" horiz-adv-x="1018" 
d="M512 973q93 203 199 438q34 13 251 14q2 -35 -137 -337q-68 -126 -188 -383q201 -427 335 -677q-117 -27 -263 -29q-109 242 -198 435q-89 -193 -197 -435q-157 12 -253 39q127 242 325 664q-123 259 -193 386q-144 262 -142 297q226 39 261 26q106 -235 200 -438z" />
    <glyph glyph-name="Y" unicode="Y" horiz-adv-x="1018" 
d="M384 737q-122 225 -189 363q-68 139 -144 285q226 49 261 46q106 -255 230 -488q123 223 249 488q34 13 171 -6q2 -35 -137 -327q-67 -124 -185 -357q16 -642 16 -731q-107 -17 -263 -9q7 438 -9 736z" />
    <glyph glyph-name="Z" unicode="Z" horiz-adv-x="1004" 
d="M627 1117q-14 5 -591 -32l-2 1q-10 114 -7 249q32 8 267 15t651 9l18 -186q-10 -4 -667 -942q333 12 667 36l2 -256q-436 1 -563 -3t-365 -3q-3 124 -3 248l2 1z" />
    <glyph glyph-name="bracketleft" unicode="[" horiz-adv-x="598" 
d="M495 1393q-5 -135 3 -250q-172 -1 -245 -8q-10 -753 -3 -901l35 -10q123 9 259 2q0 -61 -24 -225q-142 -3 -480 -13q4 736 -3 1053l-15 346l1 2q108 8 245 4q194 12 227 0z" />
    <glyph glyph-name="backslash" unicode="\" horiz-adv-x="1123" 
d="M225 1448h114l756 -1452l-2 -1l-229 8l-785 1442q98 -1 146 3z" />
    <glyph glyph-name="bracketright" unicode="]" horiz-adv-x="598" 
d="M298 1393q138 4 246 -4v-2l-15 -346q-7 -317 -3 -1053q-338 10 -479 13q-24 164 -25 225q137 7 259 -2l35 10q8 148 -2 901q-74 7 -246 8q9 115 3 250q34 12 227 0z" />
    <glyph glyph-name="asciicircum" unicode="^" horiz-adv-x="1014" 
d="M472 1401q-240 -223 -367 -367l248 23q100 104 201 196q104 -132 158 -222l207 26q-92 134 -318 359z" />
    <glyph glyph-name="underscore" unicode="_" horiz-adv-x="1473" 
d="M1421 90q14 -125 -13 -220q-76 -6 -633 8q-444 2 -701 -8q-21 26 9 216l4 4q15 7 858 5z" />
    <glyph glyph-name="grave" unicode="`" horiz-adv-x="1024" 
d="M177 1300q132 16 377 11q47 -61 90.5 -99.5t138.5 -110.5q-155 -14 -247 -9q-165 71 -361 207z" />
    <glyph glyph-name="a" unicode="a" 
d="M612 48q-28 -20 -65 -33q-120 -51 -262 -21q-179 43 -218 151q-3 10 -10 41q-13 93 3 185.5t194 156.5q47 17 242 75l17 6q109 25 79 164l-3 8q-4 12 -30 29q-90 28 -162 2l-7 -2q-77 -17 -62 -119q-194 3 -269 8l3 73q-3 46 42 133q25 62 145 106q71 25 142 26
q333 4 410 -208l6 -16q15 -42 21 -92q3 -19 4 -37q5 -4 11 -243.5t6 -455.5q-97 -9 -238 -5q1 35 1 68zM612 380q-1 34 -2 65q-151 -27 -198 -44l-11 -4q-130 -25 -140.5 -67t6 -84.5t90.5 -64.5q111 -21 169 0q24 9 32 19q32 12 54 180z" />
    <glyph glyph-name="b" unicode="b" horiz-adv-x="956" 
d="M288 391q5 -46 19 -84q11 -33 51 -67q93 -44 202 -13q33 12 56 38q33 19 49 150t-25 245l-7 20q-32 91 -245 50l-11 -4q-13 -5 -12 -7q-49 -17 -71 -165q-2 -15 -4 -29zM290 -1q-156 -8 -263 9q0 449 20 1513q35 13 261 4q2 -33 -5 -605q28 26 64 41q65 27 120 30
q131 22 253 -36q111 -81 145 -194l10 -31q35 -116 30 -246.5t-54.5 -262.5t-140.5 -184q-77 -32 -233 -25q-136 4 -208 78q0 -46 1 -91z" />
    <glyph glyph-name="c" unicode="c" horiz-adv-x="905" 
d="M635 1004l16 -4q223 -68 207 -386l-238 3l-18 75q-21 85 -66 99l-22 6q-142 19 -175 -91q-54 -175 -29 -341.5t153 -205.5q105 -13 147 11q52 34 75 111q27 88 15 177q120 10 160 6q18 -52 7 -139q-4 -56 -16 -98l-8 -25q-51 -170 -287 -201q-187 -12 -265 11
q-216 66 -238.5 335.5t36.5 465.5l2 6q61 200 333 202q126 8 211 -17z" />
    <glyph glyph-name="d" unicode="d" horiz-adv-x="956" 
d="M663 525q-2 14 -4 29q-22 148 -71 165q1 2 -12 7l-11 4q-213 41 -245 -50l-7 -20q-41 -114 -25 -245t49 -150q23 -26 56 -38q109 -31 202 13q40 34 51 67q14 38 19 84zM664 90q-72 -74 -208 -78q-156 -7 -233 25q-91 52 -140.5 184t-54.5 262.5t30 246.5l10 31
q34 113 145 194q122 58 253 36q55 -3 120 -30q36 -15 64 -41q-7 572 -5 605q226 9 261 -4q20 -1064 20 -1513q-107 -17 -263 -9q1 45 1 91z" />
    <glyph glyph-name="e" unicode="e" horiz-adv-x="905" 
d="M303 387q2 -37 7 -72q25 -117 153 -156q105 -13 147 11q62 34 75 171l168 -2q-13 -336 -297 -338q-187 -12 -265 11q-216 66 -238.5 335.5t36.5 465.5l2 6q61 200 333 202q126 8 211 -17l16 -4q223 -68 202 -586zM620 567l-18 105q-21 105 -66 119l-22 6
q-142 19 -175 -91q-15 -48 -24 -145z" />
    <glyph glyph-name="f" unicode="f" horiz-adv-x="770" 
d="M209 1033q0 16 1 26q-9 355 189 422q36 12 99.5 22t203.5 2l-8 -202q-49 25 -136 -4q-3 -1 -27 -19q-29 -37 -36 -234v-22q206 -7 214 -8q0 -158 -7 -182q-99 4 -212 8q-8 -432 -24 -711q1 -131 -2 -143h-287q6 200 24 570q2 164 4 294q-74 2 -153 5l3 181q82 -3 154 -5z
" />
    <glyph glyph-name="g" unicode="g" horiz-adv-x="999" 
d="M691 620q-5 46 -19 84q-11 33 -51 67q-93 44 -202 13q-33 -12 -56 -38q-33 -19 -49 -150t25 -245l7 -20q32 -91 245 -50l11 4q13 5 12 7q49 17 71 165q2 15 4 29zM671 -134q0 120 5 225q-28 -26 -64 -41q-65 -27 -120 -30q-131 -22 -253 36q-111 81 -145 194l-10 31
q-35 116 -30 246.5t54.5 262.5t140.5 184q77 32 233 25q136 -4 208 -78q0 46 -1 91q156 8 263 -9q0 -438 -19 -1065q2 -21 -1 -46v-2q-4 -36 -17 -78l-2 -6q-61 -200 -333 -202q-126 -8 -211 17l-16 4q-223 68 -207 316l238 -3l18 -75q21 -85 66 -99l22 -6q142 -19 175 91
q3 9 6 17z" />
    <glyph glyph-name="h" unicode="h" horiz-adv-x="873" 
d="M281 -10l-259 4q23 880 35 1527q35 13 261 4q2 -33 -5 -605q28 26 64 41q65 27 120 30q137 -3 205.5 -70t98 -187t24.5 -250q-1 -15 -20 -490h-254q24 570 -11 666l-7 20q-32 91 -135 50l-11 -4q-13 -5 -12 -7q-49 -17 -71 -165q-2 -15 -4 -29q-1 -37 -19 -535z" />
    <glyph glyph-name="i" unicode="i" horiz-adv-x="374" 
d="M37 946q226 7 261 -6q-4 -107 9 -977l-258 -2q-14 953 -12 985zM301 1095l-259 2q4 130 -1 237q35 13 261 6q3 -32 -1 -245z" />
    <glyph glyph-name="j" unicode="j" horiz-adv-x="642" 
d="M60 -135q49 -25 136 4q3 1 27 19q29 37 36 174l29 785q-1 131 2 143h287q-6 -200 -17.5 -530.5t-15.5 -410.5q9 -335 -189 -402q-36 -12 -93 -22l-210 -2zM561 1124l-259 2q4 130 -1 237q35 13 261 6q2 -32 -1 -245z" />
    <glyph glyph-name="k" unicode="k" horiz-adv-x="850" 
d="M600 1012q92 -42 157 -92l-232 -379q-6 2 -24 -49q59 -81 308 -475q-5 -14 -140 -32l-124 -17q-46 79 -160 267q-73 122 -87 134l-1 -3v-214q6 -29 7 -150q-5 -15 -199 -5q-4 12 -6 154q-21 951 -34 1211q37 11 247 8q21 -127 23 -335q17 -341 12 -380l7 -2
q18 -6 117.5 160t124.5 201z" />
    <glyph glyph-name="l" unicode="l" horiz-adv-x="374" 
d="M30 1496q226 7 261 -6q6 -647 19 -1527l-258 -2q-24 1503 -22 1535z" />
    <glyph glyph-name="m" unicode="m" horiz-adv-x="1527" 
d="M745 -6h-134q24 570 -11 666l-7 20q-32 91 -195 50l-11 -4q-13 -5 -12 -7q-49 -17 -71 -165q-2 -15 -4 -29q-1 -37 -19 -535l-259 4q23 880 25 997q35 13 261 4q2 -33 5 -75q28 26 64 41q65 27 170 30q147 -3 216 -70q24 -24 43 -54q71 111 334 126q147 -3 215.5 -70
t98 -187t24.5 -250q-1 -15 -20 -490h-254q24 570 -11 666l-7 20q-32 91 -195 50l-11 -4q-13 -5 -12 -7q-49 -17 -71 -165q-2 -15 -4 -29q-1 -37 -19 -535z" />
    <glyph glyph-name="n" unicode="n" horiz-adv-x="940" 
d="M281 -10l-259 4q23 880 25 997q35 13 261 4q2 -33 5 -75q28 26 64 41q65 27 170 30q147 -3 215.5 -70t98 -187t24.5 -250q-1 -15 -20 -490h-254q24 570 -11 666l-7 20q-32 91 -195 50l-11 -4q-13 -5 -12 -7q-49 -17 -71 -165q-2 -15 -4 -29q-1 -37 -19 -535z" />
    <glyph glyph-name="o" unicode="o" horiz-adv-x="956" 
d="M695 961q161 -57 179 -264q39 -208 26 -276q-14 -150 -38 -219q-65 -183 -320 -190q-184 -7 -274 25q-107 52 -165.5 184t-64.5 262.5t36 246.5l11 31q40 113 171 194q143 58 298 36q64 -3 141 -30zM310 680l-7 -20q-41 -114 -25 -245t49 -150q23 -26 56 -38
q109 -31 202 13q40 34 51 67q35 98 13 246.5t-71 165.5q1 2 -12 7l-11 4q-213 41 -245 -50z" />
    <glyph glyph-name="p" unicode="p" horiz-adv-x="999" 
d="M316 486q2 -14 4 -29q22 -148 71 -165q-1 -2 12 -7l11 -4q213 -41 245 50l7 20q41 114 25 245t-49 150q-23 26 -56 38q-109 31 -202 -13q-40 -34 -51 -67q-14 -38 -19 -84zM315 921q72 74 208 78q156 7 233 -25q91 -52 140.5 -184t54.5 -262.5t-30 -246.5l-10 -31
q-34 -113 -145 -194q-122 -58 -253 -36q-55 3 -120 30q-36 15 -64 41q7 -472 5 -505q-226 -9 -261 4q-20 964 -20 1413q107 17 263 9q-1 -45 -1 -91z" />
    <glyph glyph-name="q" unicode="q" horiz-adv-x="999" 
d="M691 620q-5 46 -19 84q-11 33 -51 67q-93 44 -202 13q-33 -12 -56 -38q-33 -19 -49 -150t25 -245l7 -20q32 -91 245 -50l11 4q13 5 12 7q49 17 71 165q2 15 4 29zM689 1012q156 8 263 -9q0 -449 -20 -1413q-35 -13 -261 -4q-2 33 5 505q-28 -26 -64 -41q-65 -27 -120 -30
q-131 -22 -253 36q-111 81 -145 194l-10 31q-35 116 -30 246.5t54.5 262.5t140.5 184q77 32 233 25q136 -4 208 -78q0 46 -1 91z" />
    <glyph glyph-name="r" unicode="r" horiz-adv-x="686" 
d="M593 706q-89 48 -185 24l-11 -4q-13 -5 -12 -7q-49 -17 -71 -165q-2 -15 -4 -29q-1 -37 -19 -535l-259 4q23 880 25 997q35 13 261 4q2 -33 5 -75q28 26 64 41q65 27 170 30q53 -1 95 -10z" />
    <glyph glyph-name="s" unicode="s" 
d="M634 1011q120 -44 145 -106q45 -87 42 -133l3 -73q-75 -5 -269 -8q15 102 -62 119l-7 2q-72 26 -162 -2q-26 -17 -30 -29l-3 -8q-30 -139 79 -164l17 -6q195 -58 242 -75q178 -64 194 -156.5t3 -185.5q-7 -31 -10 -41q-39 -108 -218 -151q-202 -30 -342 21
q-152 55 -166 231q-8 50 -2 67q175 3 198 0l2 -1q-17 -92 37 -112q8 -10 32 -19q58 -21 169 0q74 22 90.5 64.5t6 84.5t-140.5 67l-11 4q-52 19 -233 50l-15 5q-199 50 -168 265q6 50 21 92l6 16q77 212 410 208q71 -1 142 -26z" />
    <glyph glyph-name="t" unicode="t" horiz-adv-x="770" 
d="M45 796l-3 181q79 2 153 5q-2 110 -8 287l287 10q3 -12 6 -288q113 5 212 9q7 -24 7 -182q-8 -2 -214 -8l10 -379q7 -177 36 -214q24 -18 27 -19q87 -29 136 -4l8 -202q-140 -8 -203.5 2t-99.5 22q-198 67 -189 402q-1 107 -11 382q-72 -2 -154 -4z" />
    <glyph glyph-name="u" unicode="u" horiz-adv-x="940" 
d="M622 1003l259 3q2 -880 4 -997q-35 -14 -261 -11q-3 33 -7 74q-28 -26 -63 -42q-64 -29 -169 -35q-147 -2 -217.5 63t-103.5 184.5t-32 249.5q0 15 6 490l254 7q-7 -570 30 -665l8 -20q34 -90 196 -44l11 4q13 6 12 8q48 18 66 167q2 15 3 29q0 37 4 535z" />
    <glyph glyph-name="v" unicode="v" horiz-adv-x="993" 
d="M40 983q215 38 272 36q124 -382 203 -625l2 -3l3 1l210 626l3 1q165 2 210 -6l1 -3q-233 -683 -355 -1002l-3 -1q-233 1 -246 9q-297 928 -303 966z" />
    <glyph glyph-name="w" unicode="w" horiz-adv-x="1195" 
d="M263 990l129 -670q154 584 168 620q106 -8 207 -12q70 -449 97 -512q86 360 110 528h27h150q-162 -883 -185 -940q-137 0 -236 8q-49 201 -78.5 309.5t-46.5 165.5q-16 -45 -40.5 -170.5t-73.5 -316.5l-258 8q-144 681 -206 952q66 18 236 30z" />
    <glyph glyph-name="x" unicode="x" horiz-adv-x="1018" 
d="M496 717q90 134 152 280q33 9 282 10q2 -25 -132 -238q-66 -89 -181 -271q194 -302 323 -479q-113 -19 -284 -20q-105 171 -161 247q-56 -76 -160 -247q-182 8 -274 28q122 171 313 469q-118 183 -186 273q-139 185 -137 210q258 27 292 18q62 -146 153 -280z" />
    <glyph glyph-name="y" unicode="y" horiz-adv-x="993" 
d="M398 -2q-356 947 -361 984l2 1q216 38 273 36q123 -382 203 -625l1 -3l3 1l211 626l3 1q165 2 209 -6l2 -3q-324 -1113 -402 -1278.5t-282 -167.5l-160 -2l8 242q49 -25 196 4q3 1 27 19q29 37 67 171z" />
    <glyph glyph-name="z" unicode="z" horiz-adv-x="820" 
d="M428 775q-14 5 -391 -22l-2 1q-10 114 -7 249q32 8 147 10t531 4l18 -186q-10 -4 -458 -600q363 12 477 36l2 -256q-216 1 -343 -3t-365 -3q-3 124 -3 248l2 1z" />
    <glyph glyph-name="braceleft" unicode="{" horiz-adv-x="714" 
d="M89 779q14 2 21 4q108 14 117 69q7 23 6 183q2 160 29 230l10 25q37 97 150 147q113 43 228 36l2 -1q11 -2 5 -133h-15q-154 -32 -206 -169l-3 -7q-12 -30 -9.5 -115.5t-1.5 -87.5q4 -112 -49 -214q-7 -22 -25 -41q25 -22 33 -49q53 -102 49 -214q4 -2 1.5 -87.5
t9.5 -115.5l3 -7q52 -137 206 -169h15q6 -131 -5 -133l-2 -1q-115 -7 -228 36q-113 50 -150 147l-10 25q-27 70 -29 230q1 160 -6 183q-9 55 -117 69q-7 2 -23 4q-52 -2 -57 12l3 138l14 2q11 4 34 4z" />
    <glyph glyph-name="bar" unicode="|" horiz-adv-x="303" 
d="M242 1557q-6 -207 -1 -298q14 -771 16.5 -1038t4.5 -438l-175 -8l-1 1q-16 280 -24 901q-15 543 -18 883h87q36 -4 111 -3z" />
    <glyph glyph-name="braceright" unicode="}" horiz-adv-x="714" 
d="M650 775l14 -2l3 -138q-5 -14 -57 -12q-16 -2 -23 -4q-108 -14 -117 -69q-7 -23 -6 -183q-2 -160 -29 -230l-10 -25q-37 -97 -150 -147q-113 -43 -228 -36l-2 1q-11 2 -5 133h15q154 32 206 169l3 7q12 30 9.5 115.5t1.5 87.5q-4 112 49 214q8 27 33 49q-18 19 -25 41
q-53 102 -49 214q-4 2 -1.5 87.5t-9.5 115.5l-3 7q-52 137 -206 169h-15q-6 131 5 133l2 1q115 7 228 -36q113 -50 150 -147l10 -25q27 -70 29 -230q-1 -160 6 -183q9 -55 117 -69q7 -2 21 -4q23 0 34 -4z" />
    <glyph glyph-name="asciitilde" unicode="~" horiz-adv-x="1085" 
d="M77 533v178q-3 205 133 252l10 3q27 10 59 13q139 12 313 -171t234 -163q33 12 47 45q14 68 -9 279l138 5l3 -118q7 -86 -12 -210q-28 -110 -97 -134q-6 -2 -26 -6q-199 -8 -367.5 168t-224.5 160l-6 -1q-7 -3 -18 -19q-18 -55 -9 -270l1 -4z" />
    <glyph glyph-name="exclamdown" unicode="&#xa1;" horiz-adv-x="374" 
d="M295 566q2 -35 13 -312t19 -734q-156 -8 -263 9q1 449 60 1033q35 13 171 4zM81 689q-20 154 0 233q105 17 258 9q0 -211 -2 -246q-222 -9 -256 4z" />
    <glyph glyph-name="cent" unicode="&#xa2;" horiz-adv-x="962" 
d="M722 977q166 -88 152 -363l-238 3l-12 48l-157 -502l12 -4q105 -13 147 11q52 34 75 111q27 88 15 177q120 10 160 6q18 -52 7 -139q-4 -56 -16 -98l-8 -25q-51 -170 -287 -201q-92 -6 -157 -3l-38 -121l-114 -7l-1 1l42 142q-213 67 -235 335q-23 269 36 465l2 6
q61 200 333 202q93 6 164 -6l36 120h58q23 -3 73 -3zM538 795l-8 2q-142 19 -175 -91q-54 -175 -29 -341q12 -78 46 -128z" />
    <glyph glyph-name="sterling" unicode="&#xa3;" horiz-adv-x="1032" 
d="M410 219q110 -1 255 -1l340 -5q10 -125 -10 -220q-54 -6 -452 8q-316 2 -500 -8q-15 26 7 216l3 4q4 2 80 4q2 122 1 261q0 38 1 73q-61 -3 -108 -7q-9 26 4 216l1 4q4 4 106 5q2 145 4 190q-8 335 190 402q35 12 92 22q414 62 493 -171l5 -13q33 -97 34 -271l-256 -2
q-6 196 -74 217q-48 26 -136 -4q-3 -1 -27 -19q-28 -37 -36 -174q-2 -90 -3 -178l171 -4q6 -125 -6 -220q-25 -5 -170 3q-4 -168 -9 -328z" />
    <glyph glyph-name="currency" unicode="&#xa4;" horiz-adv-x="1403" 
d="M559 965l-7 -20q-41 -114 -18 -309q29 -167 62 -186q23 -26 56 -38q89 -31 182 13q40 34 51 67q35 98 3 353q-12 142 -61 159q1 2 -12 7l-11 4q-213 41 -245 -50zM941 1221l35 30q227 182 235 180l3 -2q127 -141 138 -167q-76 -48 -194 -144q-38 -35 -68 -62
q14 -42 18 -94q39 -208 26 -376q-14 -150 -38 -219q-4 -11 -8 -21q30 -28 70 -65q118 -96 194 -144q-11 -25 -138 -167l-3 -2q-8 -2 -235 180l-59 51q-61 -20 -141 -22q-184 -7 -274 25l-16 6l-50 -43q-227 -182 -235 -180l-4 2q-126 142 -137 167q76 48 194 144
q47 44 82 75q-14 35 -23 76q-35 129 -42 267q-5 163 37 279l11 31q2 6 4 11q-30 28 -69 64q-118 96 -194 144q11 26 137 167l4 2q8 2 235 -180l33 -28q10 7 21 14q143 58 298 36q64 -3 141 -30q6 -2 12 -5z" />
    <glyph glyph-name="yen" unicode="&#xa5;" horiz-adv-x="962" 
d="M615 425q8 -364 8 -429q-104 -17 -255 -9q4 242 1 441q-181 -1 -298 -7q-12 21 6 174l2 3q7 4 285 4q0 19 -1 38q-177 -1 -292 -7q-12 22 6 174l2 3q6 3 232 4q-84 163 -136 272q-66 139 -140 285q220 49 254 46q103 -255 224 -488q119 223 242 488q33 13 166 -6
q2 -35 -133 -327q-53 -100 -137 -270l236 -4q9 -100 -8 -176q-38 -4 -269 2q1 -17 1 -34l276 -4q9 -101 -8 -177q-37 -4 -264 4z" />
    <glyph glyph-name="brokenbar" unicode="&#xa6;" horiz-adv-x="303" 
d="M219 1520q-6 -89 -1 -128q14 -331 16.5 -446t4.5 -188l-175 -4l-1 1q-16 120 -24 387q-15 234 -18 380h87q36 -2 111 -2zM248 698q-6 -89 -1 -128q14 -331 16.5 -446t4.5 -188l-175 -4l-1 1q-16 120 -24 387q-15 234 -18 380h87q36 -2 111 -2z" />
    <glyph glyph-name="section" unicode="&#xa7;" 
d="M130 853q-97 69 -75 224q6 50 21 92l6 16q77 212 410 208q71 -1 142 -26q120 -44 145 -106q45 -87 42 -133l3 -73q-75 -5 -269 -8q15 102 -62 119l-7 2q-72 26 -162 -2q-26 -17 -30 -29l-3 -8q-30 -139 79 -164l17 -6q37 -11 125 -37.5t117 -37.5q178 -64 194 -156.5
t3 -185.5q-7 -31 -10 -41q-18 -51 -68 -88q97 -69 74 -224q-6 -50 -21 -92l-6 -16q-77 -212 -410 -208q-71 1 -142 26q-120 44 -145 106q-45 87 -42 133l-3 73q75 5 269 8q-15 -102 62 -119l7 -2q72 -26 162 2q26 17 30 29l3 8q30 139 -79 164l-17 6q-36 11 -67 20
q-145 44 -175 55q-178 64 -194 156.5t-3 185.5q7 31 10 41q19 51 69 88zM498 517q77 2 104 38.5t28 79.5q-73 105 -250 114q-77 -2 -104.5 -38.5t-28.5 -79.5q-1 -37 68.5 -71t182.5 -43z" />
    <glyph glyph-name="dieresis" unicode="&#xa8;" horiz-adv-x="782" 
d="M322 1322q20 -154 0 -233q-105 -17 -258 -9q0 211 2 246q222 9 256 -4zM707 1316q20 -154 0 -233q-105 -17 -258 -9q0 211 2 246q222 9 256 -4z" />
    <glyph glyph-name="copyright" unicode="&#xa9;" horiz-adv-x="1293" 
d="M946 1284q143 -51 159 -235q35 -185 23 -602q-12 -135 -33 -195q-58 -163 -321 -170q-334 -6 -414 23q-131 46 -168 220q-31 115 -38 318q-4 331 33 436l10 27q36 100 153 173q127 52 434 32q57 -2 162 -27zM617 1170q-182 -1 -222 -135l-1 -3q-40 -131 -14 -497
q5 -254 149 -298q52 -16 176 -8q157 21 192 135l4 16q9 29 11 66q8 131 -4 166q-26 2 -106 -4q8 -133 -10 -191q-16 -52 -50 -75q-29 -15 -99 -7q-85 26 -103 247q-16 261 20 378q22 73 117 61l15 -5q29 -9 44 -66l12 -136l159 -3q10 300 -138 344l-11 4q-57 16 -141 11z
M817 1414q-378 23 -535 -38q-144 -85 -188 -202l-12 -32q-46 -122 -41 -509q8 -237 47 -371q46 -203 207 -257q99 -33 509 -26q324 7 395 198q26 70 42 228q14 486 -29 703q-19 214 -196 275q-129 28 -199 31z" />
    <glyph glyph-name="ordfeminine" unicode="&#xaa;" horiz-adv-x="796" 
d="M497 841q-19 -12 -43 -20q-79 -31 -173 -13q-118 26 -144 91q-2 6 -6 24q-9 56 1.5 111.5t128.5 94.5q31 10 160 45l11 3q72 15 52 99l-2 4q-3 8 -20 18q-59 17 -107 1l-4 -1q-51 -10 -41 -72q-128 2 -178 5l2 44q-2 28 28 80q16 37 96 63q46 15 93 16q220 2 271 -125
l4 -9q10 -26 14 -56q2 -11 2 -22h3q1 -2 5 -146t4 -273q-64 -6 -158 -3q1 21 1 41zM497 1040q-1 20 -1 39q-100 -16 -131 -27l-7 -2q-86 -15 -93 -40t4 -50.5t60 -39.5q73 -12 111 0q16 6 22 12q21 7 35 108zM740 746q7 -97 -6 -170q-38 -5 -317 6q-222 2 -350 -6
q-11 20 4 166l2 4q8 5 429 3z" />
    <glyph glyph-name="guillemotleft" unicode="&#xab;" horiz-adv-x="1759" 
d="M905 306q-28 1 -838 270q-6 10 -6 216l1 2q364 120 863 297h2q6 -33 4 -153l-1 -3l-588 -249l-1 -2l2 -1q309 -98 589 -173q1 -41 -27 -201v-3zM1671 306q-28 1 -838 270q-6 10 -6 216l1 2q364 120 863 297h2q6 -33 4 -153l-1 -3l-588 -249l-1 -2l2 -1q309 -98 589 -173
q1 -41 -27 -201v-3z" />
    <glyph glyph-name="logicalnot" unicode="&#xac;" horiz-adv-x="763" 
d="M462 278q-24 9 3 406q-176 0 -398 -8l-4 1l-12 105q-7 28 -1 150q525 33 667 28q-9 -283 -7 -674q-168 -16 -248 -8z" />
    <glyph glyph-name="registered" unicode="&#xae;" horiz-adv-x="537" 
d="M371 1386q51 -18 57 -83q12 -66 8 -214q-4 -48 -12 -69q-21 -58 -115 -60q-118 -3 -146 7q-47 17 -60 79q-11 40 -13 113q-2 117 11 155l4 10q13 35 54 61q46 18 154 11q21 -1 58 -10zM183 1340q-4 -12 -1.5 -151t0.5 -164q12 -1 56 3q0 43 -4 110q32 0 44 -4
q8 -3 17 -13q14 -26 12 -114q12 -1 55 -3q1 3 -1 27q-2 41 -8 76q-4 60 -29 69l-2 1v1q27 6 35 29v1q9 24 4.5 68t-41.5 59l-4 2q-29 10 -133 3zM278 1296l1 -1q28 -11 16 -86q-4 -6 -4 -7q-10 -9 -48 -4l-1 2q-4 56 -5 93q21 8 41 3zM331 1448q-140 8 -200 -14
q-54 -32 -71 -75l-4 -11q-17 -46 -15 -189q3 -89 17 -139q17 -74 78 -95q37 -12 190 -9q122 3 148 74q11 25 16 83q6 181 -10 262q-8 79 -74 101q-48 11 -75 12z" />
    <glyph glyph-name="macron" unicode="&#xaf;" horiz-adv-x="1006" 
d="M939 1696q9 -125 -9 -220q-49 -6 -411 8q-287 2 -454 -8q-14 26 5 216l3 4q10 7 557 5z" />
    <glyph glyph-name="degree" unicode="&#xb0;" horiz-adv-x="537" 
d="M395 1392q63 -22 70 -102q15 -81 10 -263q-5 -58 -15 -84q-25 -71 -140 -74q-145 -3 -179 9q-58 21 -74 96q-13 50 -16 139q-2 144 14 190l4 12q16 43 67 75q56 22 189 14q25 -1 70 -12zM305 1317q-90 6 -128 -9q-34 -21 -45 -51l-3 -8q-11 -31 -9 -128q2 -60 11 -94
q11 -51 49 -65q24 -8 122 -6q77 2 94 50q7 18 10 57q4 123 -7 177q-4 54 -46 69q-31 8 -48 8z" />
    <glyph glyph-name="plusminus" unicode="&#xb1;" horiz-adv-x="892" 
d="M560 765h115l164 -5q5 -125 -4 -220q-26 -6 -219 8h-55q1 -219 7 -278q-26 -7 -216 3l-4 2q-4 3 -5 273q-211 -2 -269 -8q-7 26 3 216l2 4q3 5 264 5v106l5 164q125 5 220 -4q6 -27 -8 -219v-47zM789 223q5 -125 -4 -220q-26 -6 -299 2t-362 -2q-7 26 3 216l2 4
q5 7 660 0z" />
    <glyph glyph-name="uni00B2" unicode="&#xb2;" horiz-adv-x="507" 
d="M52 971q5 63 99 96q24 9 126 39l9 3q36 13 44 44q13 93 -3 136l-2 4q-2 7 -15 15q-47 15 -85 1l-3 -1q-33 -12 -32 -56q-2 -78 -6 -116q-101 2 -140 5q1 102 6 148q-1 24 22 69q13 32 76 55q37 14 74 14q174 2 215 -109l2 -8q9 -22 12 -48q10 -98 3 -129
q-18 -119 -91 -145l-8 -3q-95 -16 -122 -26l-6 -2q-36 -13 -54 -42q-23 -49 -7 -99q103 0 281 4h2l7 -117q-337 -18 -406 -15q-9 212 2 283z" />
    <glyph glyph-name="uni00B3" unicode="&#xb3;" horiz-adv-x="502" 
d="M323 1161q24 81 7 128q-10 27 -37 38q-56 10 -86 0q-12 -5 -16 -10q-27 -10 -24 -112l-1 -1q-11 -1 -100 0q-3 9 6 90q7 89 84 117q71 26 173 10q91 -21 111 -76q1 -5 5 -21q6 -118 -0.5 -170.5t-65.5 -75.5q64 -28 72 -82q7 -45 -3 -140q-3 -25 -10 -47l-3 -8
q-39 -107 -208 -105q-36 1 -72 13q-61 22 -73 54q-23 44 -21 67q-5 45 -7 123q38 3 111 4q-2 -36 6.5 -85t55.5 -61l3 -1q37 -13 82 1q13 9 15 15l2 4q15 42 2 146q-13 45 -149 40h-2v115q6 -2 66 0.5t77 29.5z" />
    <glyph glyph-name="acute" unicode="&#xb4;" horiz-adv-x="1024" 
d="M841 1322q-195 -136 -361 -207q-91 -5 -247 9q95 72 138.5 110.5t90.5 99.5q245 5 377 -11z" />
    <glyph glyph-name="mu" unicode="&#xb5;" horiz-adv-x="940" 
d="M297 526q7 -156 25 -202l8 -20q34 -90 196 -44l11 4q13 6 12 8q48 18 66 167q2 15 3 29q0 37 4 535l259 3q2 -880 4 -997q-35 -14 -261 -11q-3 33 -7 74q-28 -26 -63 -42q-64 -29 -169 -35q-44 -1 -80 5q7 -482 5 -500q-226 -7 -261 6q-3 387 -10 859q-7 62 -7 127
q0 10 3 212q-3 139 -5 285h259h3q-1 -63 -1 -120q3 -183 6 -343z" />
    <glyph glyph-name="paragraph" unicode="&#xb6;" horiz-adv-x="1044" 
d="M720 477q-1 -24 -2 -46q-10 -634 -20 -780q-158 -4 -210 20l16 807q-31 3 -56 -3q-138 2 -191 33q-142 84 -178 209q-26 90 -23 291q-3 267 182 337q62 24 214 27q97 -1 292 -1.5t242 -22.5q-14 -643 -24 -1097t-20 -600q-158 -4 -210 20l16 807q-26 3 -28 -1z" />
    <glyph glyph-name="periodcentered" unicode="&#xb7;" horiz-adv-x="508" 
d="M371 809q17 -131 0 -198q-89 -15 -219 -8q0 180 2 209q188 8 217 -3z" />
    <glyph glyph-name="periodcentered" unicode="&#x2219;" horiz-adv-x="508" 
d="M371 809q17 -131 0 -198q-89 -15 -219 -8q0 180 2 209q188 8 217 -3z" />
    <glyph glyph-name="cedilla" unicode="&#xb8;" horiz-adv-x="435" 
d="M160 34l-78 -173h110q73 -2 89 -22t16 -42.5t-13 -30t-27.5 -11.5t-51 -4t-90.5 17l-48 -81q90 -41 126.5 -42.5t66 1.5t48.5 16t42 42t27.5 62.5t-1.5 73t-23.5 58.5t-42 30.5t-97.5 17.5l23 70z" />
    <glyph glyph-name="uni00B9" unicode="&#xb9;" horiz-adv-x="318" 
d="M147 712q-12 4 -13 540q-13 0 -58 -4l-2 1l-6 56q70 20 120 79l69 3q-5 -480 -4 -671q-67 -8 -106 -4z" />
    <glyph glyph-name="ordmasculine" unicode="&#xba;" horiz-adv-x="766" 
d="M527 1412q106 -34 118 -158q25 -125 17 -166q-9 -90 -25 -131q-43 -110 -211 -114q-122 -4 -181 15q-71 31 -109.5 110.5t-42.5 157.5t24 148l7 18q26 68 113 117q94 35 197 21q42 -1 93 -18zM273 1244l-5 -12q-27 -69 -16.5 -147.5t32.5 -89.5q15 -16 37 -23
q72 -19 133 8q26 20 34 40q23 59 8.5 148t-47.5 99q1 1 -8 4l-7 3q-140 24 -161 -30zM722 783q7 -88 -6 -155q-38 -4 -317 6q-222 1 -350 -6q-11 18 4 152l2 3q8 5 429 4z" />
    <glyph glyph-name="guillemotright" unicode="&#xbb;" horiz-adv-x="1759" 
d="M89 1091q27 -1 837 -269q6 -10 6 -217l-1 -2q-364 -119 -863 -297l-2 1q-6 33 -4 153l1 2l588 250l1 2l-2 1q-309 98 -589 173q-1 41 27 201zM855 1091q27 -1 837 -269q6 -10 6 -217l-1 -2q-364 -119 -863 -297l-2 1q-6 33 -4 153l1 2l588 250l1 2l-2 1q-309 98 -589 173
q-1 41 27 201z" />
    <glyph glyph-name="onequarter" unicode="&#xbc;" horiz-adv-x="1276" 
d="M285 712q-12 4 -13 540q-13 0 -58 -4l-2 1l-6 56q70 20 120 79l69 3q-5 -480 -4 -671q-67 -8 -106 -4zM1153 1422l-854 -1442l-229 -8l-2 1l826 1452h114q47 -4 145 -3zM1219 642l2 -56q-1 -357 4 -577l-2 -5q-20 -7 -93 -2l-3 1l-4 66l-6 165l-8 5q-54 5 -241 0l-5 250
l-1 110q71 8 129 4q6 -14 4 -98q-2 -150 3 -151l2 -1q21 -2 82 0q25 -2 27 4q0 236 -3 283q43 6 113 2z" />
    <glyph glyph-name="onehalf" unicode="&#xbd;" horiz-adv-x="1305" 
d="M285 712q-12 4 -13 540q-13 0 -58 -4l-2 1l-6 56q70 20 120 79l69 3q-5 -480 -4 -671q-67 -8 -106 -4zM1153 1422l-854 -1442l-229 -8l-2 1l826 1452h114q47 -4 145 -3zM850 284q5 63 99 96q24 9 126 39l9 3q36 13 44 44q13 93 -3 136l-2 4q-2 7 -15 15q-47 15 -85 1
l-3 -1q-33 -12 -32 -56q-2 -78 -6 -116q-101 2 -140 5q1 102 6 148q-1 24 22 69q13 32 76 55q37 14 74 14q174 2 215 -109l2 -8q9 -22 12 -48q10 -98 3 -129q-18 -119 -91 -145l-8 -3q-95 -16 -122 -26l-6 -2q-36 -13 -54 -42q-23 -49 -7 -99q103 0 281 4h2l7 -117
q-337 -18 -406 -15q-9 212 2 283z" />
    <glyph glyph-name="threequarters" unicode="&#xbe;" horiz-adv-x="1322" 
d="M323 1161q24 81 7 128q-10 27 -37 38q-56 10 -86 0q-12 -5 -16 -10q-27 -10 -24 -112l-1 -1q-11 -1 -100 0q-3 9 6 90q7 89 84 117q71 26 173 10q91 -21 111 -76q1 -5 5 -21q6 -118 -0.5 -170.5t-65.5 -75.5q64 -28 72 -82q7 -45 -3 -140q-3 -25 -10 -47l-3 -8
q-39 -107 -208 -105q-36 1 -72 13q-61 22 -73 54q-23 44 -21 67q-5 45 -7 123q38 3 111 4q-2 -36 6.5 -85t55.5 -61l3 -1q37 -13 82 1q13 9 15 15l2 4q15 42 2 146q-13 45 -149 40h-2v115q6 -2 66 0.5t77 29.5zM1199 1422l-854 -1442l-229 -8l-2 1l826 1452h114
q47 -4 145 -3zM1265 642l2 -56q-1 -357 4 -577l-2 -5q-20 -7 -93 -2l-3 1l-4 66l-6 165l-8 5q-54 5 -241 0l-5 250l-1 110q71 8 129 4q6 -14 4 -98q-2 -150 3 -151l2 -1q21 -2 82 0q25 -2 27 4q0 236 -3 283q43 6 113 2z" />
    <glyph glyph-name="questiondown" unicode="&#xbf;" 
d="M500 -491q-333 -4 -410 208l-6 16q-15 42 -21 92q-19 187 -6 247q35 228 174 278l15 5q161 31 213 50l11 4q70 25 87 52t34 107l236 -1q-12 -305 -190 -369q-47 -17 -242 -75l-17 -6q-69 -25 -84 -84q-24 -177 5 -260l3 -8q5 -12 30 -29q90 -28 162 -2l7 2q63 23 61 108
q4 149 11 221q194 -3 269 -8q-3 -195 -13 -283q3 -46 -42 -133q-25 -62 -145 -106q-71 -25 -142 -26zM581 689q-20 154 0 233q104 17 258 9q0 -211 -2 -246q-222 -9 -256 4z" />
    <glyph glyph-name="Agrave" unicode="&#xc0;" horiz-adv-x="1084" 
d="M582 1403q48 -127 194 -606q30 -68 149 -445q23 -88 123 -400q-167 -41 -251 -52q-137 386 -170 453q-139 1 -257 -7q-60 -254 -78 -342l-236 12q29 209 253 1151l40 188l4 14q74 15 229 34zM388 538q188 -3 221 0q-51 227 -125 444q-19 -62 -96 -444zM149 1668
q132 16 377 11q47 -61 90 -99.5t139 -110.5q-156 -14 -247 -9q-166 71 -362 207z" />
    <glyph glyph-name="Aacute" unicode="&#xc1;" horiz-adv-x="1084" 
d="M582 1403q48 -127 194 -606q30 -68 149 -445q23 -88 123 -400q-167 -41 -251 -52q-137 386 -170 453q-139 1 -257 -7q-60 -254 -78 -342l-236 12q29 209 253 1151l40 188l4 14q74 15 229 34zM388 538q188 -3 221 0q-51 227 -125 444q-19 -62 -96 -444zM957 1667
q-195 -136 -361 -207q-91 -5 -247 9q95 72 138.5 110.5t90.5 99.5q245 5 377 -11z" />
    <glyph glyph-name="Acircumflex" unicode="&#xc2;" horiz-adv-x="1084" 
d="M582 1403q48 -127 194 -606q30 -68 149 -445q23 -88 123 -400q-167 -41 -251 -52q-137 386 -170 453q-138 1 -257 -7q-60 -254 -78 -342l-236 12q29 209 254 1151l39 188l4 14q74 15 229 34zM389 538q187 -3 220 0q-51 227 -125 444q-18 -62 -95 -444zM410 1773
q-240 -198 -367 -325l248 20q100 92 201 174q104 -117 158 -197l207 23q-92 119 -318 318z" />
    <glyph glyph-name="Atilde" unicode="&#xc3;" horiz-adv-x="1084" 
d="M582 1403q48 -127 194 -606q30 -68 149 -445q23 -88 123 -400q-167 -41 -251 -52q-137 386 -170 453q-139 1 -257 -7q-60 -254 -78 -342l-236 12q29 209 253 1151l40 188l4 14q74 15 229 34zM388 538q188 -3 221 0q-51 227 -125 444q-19 -62 -96 -444zM85 1455v90
q-2 169 110 208l8 3q23 8 49 10q116 10 260 -104.5t193 -96.5q28 9 39 37q12 56 -7 156l114 4l3 -23q5 -71 -11 -174q-22 -91 -80 -111q-5 -1 -21 -5q-165 -6 -305 102t-186 95l-4 -1q-6 -2 -15 -15q-15 -46 -8 -166l1 -3z" />
    <glyph glyph-name="Adieresis" unicode="&#xc4;" horiz-adv-x="1084" 
d="M582 1403q48 -127 194 -606q30 -68 149 -445q23 -88 123 -400q-167 -41 -251 -52q-137 386 -170 453q-139 1 -257 -7q-60 -254 -78 -342l-236 12q29 209 253 1151l40 188l4 14q74 15 229 34zM388 538q188 -3 221 0q-51 227 -125 444q-19 -62 -96 -444zM422 1722
q19 -154 0 -233q-105 -17 -259 -9q1 211 2 246q223 9 257 -4zM807 1716q19 -154 0 -233q-105 -17 -259 -9q1 211 2 246q223 9 257 -4z" />
    <glyph glyph-name="Aring" unicode="&#xc5;" horiz-adv-x="1084" 
d="M388 538q188 -3 221 0q-51 227 -125 444q-19 -62 -96 -444zM462 1693q-46 0 -78.5 -35t-32.5 -85t32.5 -85t78.5 -35t79 35t33 85t-33 85t-79 35zM574 1402q4 0 8 1q48 -127 194 -606q30 -68 149 -445q23 -88 123 -400q-167 -41 -251 -52q-137 386 -170 453
q-139 1 -257 -7q-60 -254 -78 -342l-236 12q29 209 253 1151l40 188l4 14q11 2 24 5q-40 15 -73 48q-61 61 -61 147q0 87 60.5 148t146.5 61t146.5 -61t60.5 -148q0 -86 -60 -147q-11 -11 -23 -20z" />
    <glyph glyph-name="AE" unicode="&#xc6;" horiz-adv-x="1410" 
d="M438 738l165 10l-35 337l-44 -6q-15 -75 -86 -341zM607 549l-187 -3q-110 -454 -128 -542l-236 12q29 209 253 1151l40 188l4 14q74 15 313 18q1 -2 1 -4q134 6 417 10q193 12 226 0q-5 -205 4 -320q-172 -1 -466 -18q6 -233 11 -278q227 14 407 -6q25 -1 58 0
q4 -19 -1 -179q-12 -14 -189 -11q-206 -20 -251 -30q-15 -179 -7 -327h225q122 9 259 2q-1 -61 -25 -215q-141 -3 -729 -33q1 189 1 571z" />
    <glyph glyph-name="Ccedilla" unicode="&#xc7;" horiz-adv-x="905" 
d="M383 -2q-57 4 -92 14q-216 66 -223 446q-38 549 21 745l2 6q61 200 333 202q126 8 211 -17l16 -4q223 -68 207 -516l-238 3l-18 205q-21 85 -66 99l-22 6q-142 19 -175 -91q-54 -175 -32 -567q28 -331 156 -370q105 -13 147 11q52 34 75 111q27 88 15 287q120 10 160 6
q18 -52 7 -249q-4 -56 -16 -98l-8 -25q-51 -170 -287 -201q-47 -3 -87 -4l-17 -51q73 -6 97.5 -17.5t42 -30.5t23.5 -58.5t1.5 -73t-27.5 -62.5t-42 -42t-48.5 -16t-66 -1.5t-126.5 42.5l48 81q54 -17 90.5 -17t51 4t27.5 11.5t13 30t-16 42.5t-89 22h-110z" />
    <glyph glyph-name="Egrave" unicode="&#xc8;" horiz-adv-x="818" 
d="M745 1403q-5 -205 4 -320q-172 -1 -426 -18q6 -233 11 -278q187 14 367 -6q25 -1 58 0q3 -19 -2 -179q-12 -14 -188 -11q-266 -20 -311 -30q-15 -179 -8 -327h286q122 9 259 2q-1 -61 -25 -215q-142 -3 -729 -33q4 736 -3 1053l-16 346l1 2q108 8 496 14q193 12 226 0z
M5 1668q132 16 377 11q47 -61 90.5 -99.5t138.5 -110.5q-155 -14 -247 -9q-165 71 -361 207z" />
    <glyph glyph-name="Eacute" unicode="&#xc9;" horiz-adv-x="818" 
d="M745 1403q-5 -205 3 -320q-172 -1 -425 -18q5 -233 10 -278q188 14 367 -6q26 -1 58 0q4 -19 -1 -179q-12 -14 -188 -11q-267 -20 -312 -30q-14 -179 -7 -327h285q123 9 259 2q0 -61 -24 -215q-142 -3 -730 -33q4 736 -3 1053l-15 346l1 2q108 8 495 14q194 12 227 0z
M814 1667q-196 -136 -362 -207q-91 -5 -247 9q96 72 139 110.5t90 99.5q245 5 378 -11z" />
    <glyph glyph-name="Ecircumflex" unicode="&#xca;" horiz-adv-x="818" 
d="M745 1403q-5 -205 3 -320q-172 -1 -426 -18q6 -233 11 -278q188 14 367 -6q25 -1 58 0q4 -19 -1 -179q-12 -14 -189 -11q-266 -20 -311 -30q-14 -179 -7 -327h285q122 9 259 2q-1 -61 -25 -215q-141 -3 -729 -33q4 736 -3 1053l-15 346l1 2q107 8 495 14q193 12 227 0z
M368 1776q-240 -198 -367 -325l248 20q100 92 201 174q104 -117 158 -197l207 23q-92 119 -318 318z" />
    <glyph glyph-name="Edieresis" unicode="&#xcb;" horiz-adv-x="818" 
d="M745 1403q-5 -205 3 -320q-172 -1 -425 -18q5 -233 10 -278q188 14 367 -6q26 -1 58 0q4 -19 -1 -179q-12 -14 -188 -11q-267 -20 -312 -30q-14 -179 -7 -327h285q123 9 259 2q0 -61 -24 -215q-142 -3 -730 -33q4 736 -3 1053l-15 346l1 2q108 8 495 14q194 12 227 0z
M340 1722q19 -154 0 -233q-105 -17 -258 -9q0 211 2 246q222 9 256 -4zM725 1716q19 -154 0 -233q-105 -17 -258 -9q0 211 2 246q222 9 256 -4z" />
    <glyph glyph-name="Igrave" unicode="&#xcc;" horiz-adv-x="368" 
d="M312 1411q20 -954 20 -1403q-106 -17 -263 -9q9 827 -12 1301q-8 80 -6 115q227 9 261 -4zM-212 1668q132 16 377 11q47 -61 90.5 -99.5t138.5 -110.5q-155 -14 -247 -9q-165 71 -361 207z" />
    <glyph glyph-name="Iacute" unicode="&#xcd;" horiz-adv-x="368" 
d="M312 1411q19 -954 19 -1403q-106 -17 -263 -9q9 827 -11 1301q-8 80 -7 115q227 9 262 -4zM596 1667q-195 -136 -361 -207q-91 -5 -247 9q95 72 138.5 110.5t90.5 99.5q245 5 377 -11z" />
    <glyph glyph-name="Icircumflex" unicode="&#xce;" horiz-adv-x="368" 
d="M312 1411q19 -954 20 -1403q-107 -17 -263 -9q8 827 -12 1301q-8 80 -6 115q226 9 261 -4zM151 1776q-240 -198 -367 -325l248 20q100 92 201 174q104 -117 158 -197l207 23q-92 119 -318 318z" />
    <glyph glyph-name="Idieresis" unicode="&#xcf;" horiz-adv-x="368" 
d="M312 1411q20 -954 20 -1403q-107 -17 -263 -9q9 827 -12 1301q-8 80 -6 115q227 9 261 -4zM123 1722q20 -154 0 -233q-105 -17 -258 -9q0 211 2 246q222 9 256 -4zM508 1716q20 -154 0 -233q-105 -17 -258 -9q0 211 2 246q222 9 256 -4z" />
    <glyph glyph-name="Eth" unicode="&#xd0;" horiz-adv-x="1045" 
d="M362 629l15 -347q103 -12 184 6q114 24 150 137q33 104 11 503q-18 248 -152 290q-56 18 -233 -5l16 -362l129 -4q5 -125 -4 -220q-18 -4 -116 2zM139 852q-12 226 -25 476q-10 81 -6 94q465 24 526 5q11 -1 36 -9l32 -11q159 -50 252 -275q55 -171 60 -408
q8 -243 -36 -379q-109 -343 -490 -335l-301 -2q-17 281 -36 626q-67 -1 -114 -7q-7 26 3 216l1 4q3 4 98 5z" />
    <glyph glyph-name="Ntilde" unicode="&#xd1;" horiz-adv-x="912" 
d="M829 1403q8 -277 10 -621q5 -107 6 -507q4 -63 12 -380q-42 -10 -227 3l-2 1q-22 53 -98.5 218.5t-291.5 695.5v-2q5 -356 -8 -796q-86 -12 -178 -10q13 665 -11 1301l3 14q90 5 208 1l2 -1q62 -144 179 -452q93 -219 130 -280l1 2q-1 65 -19 452q-1 104 -11 355l2 4
q71 3 293 2zM64 1469v90q-3 169 110 208l8 3q23 8 49 10q116 10 260 -104.5t193 -96.5q28 9 39 37q11 56 -7 156l114 4l2 -23q6 -71 -10 -174q-23 -91 -80 -111q-5 -1 -21 -5q-165 -6 -305 102t-186 95l-4 -1q-6 -2 -15 -15q-16 -46 -8 -166l1 -3z" />
    <glyph glyph-name="Ograve" unicode="&#xd2;" horiz-adv-x="962" 
d="M701 1361q161 -57 179 -264q39 -208 26 -676q-14 -150 -38 -219q-65 -183 -320 -190q-184 -7 -274 25q-147 52 -189 247q-35 129 -42 357q-5 373 37 489l11 31q40 113 171 194q143 58 298 36q64 -3 141 -30zM363 1077l-7 -20q-41 -114 -8 -609q19 -167 52 -186
q23 -26 56 -38q89 -31 182 13q40 34 51 67q35 98 3 653q-12 142 -61 159q1 2 -12 7l-11 4q-213 41 -245 -50zM73 1668q132 16 377 11q47 -61 90 -99.5t139 -110.5q-156 -14 -247 -9q-166 71 -362 207z" />
    <glyph glyph-name="Oacute" unicode="&#xd3;" horiz-adv-x="962" 
d="M701 1361q161 -57 179 -264q39 -208 26 -676q-14 -150 -38 -219q-65 -183 -320 -190q-184 -7 -274 25q-147 52 -189 247q-35 129 -42 357q-5 373 37 489l11 31q40 113 171 194q143 58 298 36q64 -3 141 -30zM363 1077l-7 -20q-41 -114 -8 -609q19 -167 52 -186
q23 -26 56 -38q89 -31 182 13q40 34 51 67q35 98 3 653q-12 142 -61 159q1 2 -12 7l-11 4q-213 41 -245 -50zM881 1667q-195 -136 -361 -207q-91 -5 -247 9q95 72 138.5 110.5t90.5 99.5q245 5 377 -11z" />
    <glyph glyph-name="Ocircumflex" unicode="&#xd4;" horiz-adv-x="962" 
d="M701 1361q161 -57 179 -264q39 -208 26 -676q-14 -150 -38 -219q-65 -183 -320 -190q-184 -7 -274 25q-147 52 -189 247q-35 129 -42 357q-5 373 37 489l11 31q40 113 171 194q143 58 298 36q64 -3 141 -30zM363 1077l-7 -20q-41 -114 -8 -609q19 -167 52 -186
q23 -26 56 -38q89 -31 182 13q40 34 51 67q35 98 3 653q-12 142 -61 159q1 2 -12 7l-11 4q-213 41 -245 -50zM436 1776q-240 -198 -367 -325l248 20q100 92 201 174q104 -117 158 -197l207 23q-92 119 -318 318z" />
    <glyph glyph-name="Otilde" unicode="&#xd5;" horiz-adv-x="962" 
d="M701 1361q161 -57 179 -264q39 -208 26 -676q-14 -150 -38 -219q-65 -183 -320 -190q-184 -7 -274 25q-147 52 -189 247q-35 129 -42 357q-5 373 37 489l11 31q40 113 171 194q143 58 298 36q64 -3 141 -30zM363 1077l-7 -20q-41 -114 -8 -609q19 -167 52 -186
q23 -26 56 -38q89 -31 182 13q40 34 51 67q35 98 3 653q-12 142 -61 159q1 2 -12 7l-11 4q-213 41 -245 -50zM91 1469v90q-3 169 110 208l8 3q23 8 49 10q116 10 260 -104.5t193 -96.5q28 9 39 37q11 56 -7 156l114 4l3 -23q5 -71 -11 -174q-23 -91 -80 -111q-5 -1 -21 -5
q-165 -6 -305 102t-186 95l-4 -1q-6 -2 -15 -15q-15 -46 -8 -166l1 -3z" />
    <glyph glyph-name="Odieresis" unicode="&#xd6;" horiz-adv-x="962" 
d="M701 1361q161 -57 179 -264q39 -208 26 -676q-14 -150 -38 -219q-65 -183 -320 -190q-184 -7 -274 25q-147 52 -189 247q-35 129 -42 357q-5 373 37 489l11 31q40 113 171 194q143 58 298 36q64 -3 141 -30zM363 1077l-7 -20q-41 -114 -8 -609q19 -167 52 -186
q23 -26 56 -38q89 -31 182 13q40 34 51 67q35 98 3 653q-12 142 -61 159q1 2 -12 7l-11 4q-213 41 -245 -50zM408 1722q19 -154 -1 -233q-104 -17 -258 -9q0 211 2 246q223 9 257 -4zM793 1716q19 -154 -1 -233q-104 -17 -258 -9q0 211 2 246q223 9 257 -4z" />
    <glyph glyph-name="multiply" unicode="&#xd7;" horiz-adv-x="892" 
d="M452 806l84 79l121 110q91 -87 150 -162q-15 -22 -164 -145l-40 -39q153 -157 198 -195q-14 -23 -158 -148l-4 -1q-6 0 -193 194q-151 -147 -189 -192q-23 14 -147 158l-1 4q-1 6 187 187l-73 76l-110 122q87 90 161 149q23 -15 146 -164z" />
    <glyph glyph-name="Oslash" unicode="&#xd8;" horiz-adv-x="962" 
d="M553 1144q-189 31 -220 -55l-7 -20q-41 -114 -7 -609q1 -6 1 -12zM663 955l-249 -713q6 -3 12 -5q89 -32 182 12q40 35 51 67q35 97 4 639zM628 1369l34 102l79 -1q33 -3 101 -2l-56 -160q95 -71 109 -227q39 -208 26 -676q-14 -151 -38 -219q-65 -183 -320 -190
q-144 -5 -231 12l-33 -95l-158 -9l-2 1l57 172q-69 67 -96 191q-35 128 -42 357q-5 372 36 489l12 31q40 112 171 194q143 58 298 36q25 -1 53 -6z" />
    <glyph glyph-name="Ugrave" unicode="&#xd9;" horiz-adv-x="946" 
d="M871 1431q35 -456 21 -975q-1 -174 -34 -271l-5 -13q-79 -233 -493 -171q-57 10 -92 22q-198 67 -190 402q-4 80 -8 481q-19 260 -25 460h288q3 -12 1 -143q22 -372 29 -785q8 -137 36 -174q24 -18 27 -19q88 -29 196 -4q48 22 57 47l6 19q41 122 21 421q-7 435 -16 631
l-9 65q50 12 190 7zM67 1668q132 16 377 11q47 -61 90.5 -99.5t138.5 -110.5q-155 -14 -246 -9q-166 71 -362 207z" />
    <glyph glyph-name="Uacute" unicode="&#xda;" horiz-adv-x="946" 
d="M871 1431q35 -456 21 -975q-1 -174 -34 -271l-5 -13q-79 -233 -493 -171q-57 10 -92 22q-198 67 -190 402q-4 80 -8 481q-19 260 -25 460h288q3 -12 1 -143q22 -372 29 -785q8 -137 36 -174q24 -18 27 -19q88 -29 196 -4q48 22 57 47l6 19q41 122 21 421q-7 435 -16 631
l-9 65q50 12 190 7zM876 1667q-195 -136 -361 -207q-92 -5 -247 9q95 72 138.5 110.5t90.5 99.5q245 5 377 -11z" />
    <glyph glyph-name="Ucircumflex" unicode="&#xdb;" horiz-adv-x="946" 
d="M871 1431q35 -456 21 -975q-1 -174 -34 -271l-5 -13q-79 -233 -493 -171q-57 10 -92 22q-198 67 -190 402q-4 80 -8 481q-19 260 -25 460h288q3 -12 1 -143q22 -372 29 -785q8 -137 36 -174q24 -18 27 -19q88 -29 196 -4q48 22 57 47l6 19q41 122 21 421q-7 435 -16 631
l-9 65q50 12 190 7zM431 1776q-240 -198 -367 -325l248 20q100 92 201 174q104 -117 158 -197l207 23q-92 119 -318 318z" />
    <glyph glyph-name="Udieresis" unicode="&#xdc;" horiz-adv-x="946" 
d="M871 1431q35 -456 21 -975q-1 -174 -34 -271l-5 -13q-79 -233 -493 -171q-57 10 -92 22q-198 67 -190 402q-4 80 -8 481q-19 260 -25 460h288q3 -12 1 -143q22 -372 29 -785q8 -137 36 -174q24 -18 27 -19q88 -29 196 -4q48 22 57 47l6 19q41 122 21 421q-7 435 -16 631
l-9 65q50 12 190 7zM402 1722q20 -154 0 -233q-104 -17 -258 -9q0 211 2 246q222 9 256 -4zM787 1716q20 -154 0 -233q-104 -17 -258 -9q0 211 2 246q222 9 256 -4z" />
    <glyph glyph-name="Yacute" unicode="&#xdd;" horiz-adv-x="1018" 
d="M384 737q-122 225 -189 363q-68 139 -144 285q226 49 261 46q106 -255 230 -488q123 223 249 488q34 13 171 -6q2 -35 -137 -327q-67 -124 -185 -357q16 -642 16 -731q-107 -17 -263 -9q7 438 -9 736zM912 1667q-196 -136 -361 -207q-92 -5 -247 9q95 72 138.5 110.5
t90.5 99.5q245 5 377 -11z" />
    <glyph glyph-name="Thorn" unicode="&#xde;" horiz-adv-x="876" 
d="M327 905q7 -120 12 -432l4 -1q240 -16 281 108l5 14q28 85 -4 223q-36 78 -103 101q-185 17 -195 -13zM304 1161q27 1 58 1q173 -3 244 -27q210 -70 207 -337q3 -201 -27 -291q-41 -125 -201 -209q-61 -31 -194 -33q-30 6 -64 3q-8 -232 -7 -275l-229 -8l-2 1
q-11 220 -22 561q-19 543 -23 883h114q47 -4 146 -3q-8 -137 -1 -228q0 -19 1 -38z" />
    <glyph glyph-name="germandbls" unicode="&#xdf;" 
d="M586 902q47 160 13 253q-19 52 -73 74q-71 21 -129 0q-24 -9 -32 -19q-54 -20 -53 -85l6 -1227l-2 -1q-23 -3 -238 0q-6 17 12 1267q14 176 166 231q140 51 342 21q179 -43 218 -151q3 -10 10 -41q13 -233 0 -336.5t-131 -150.5q128 -55 144 -161q13 -90 -6 -277
q-6 -50 -21 -92l-6 -16q-77 -212 -410 -208l-1 197l7 -2q72 4 162 32q26 17 30 29l3 8q29 83 5 290q-26 88 -226 78q-2 1 -4 1v226q12 -3 96 1.5t118 58.5z" />
    <glyph glyph-name="agrave" unicode="&#xe0;" 
d="M677 48q-28 -20 -65 -33q-120 -51 -262 -21q-179 43 -218 151q-3 10 -10 41q-13 93 3 185.5t194 156.5q47 17 242 75l17 6q109 25 79 164l-3 8q-4 12 -30 29q-90 28 -162 2l-7 -2q-77 -17 -62 -119q-194 3 -269 8l3 73q-3 46 42 133q25 62 145 106q71 25 142 26
q333 4 410 -208l6 -16q15 -42 21 -92q3 -19 4 -37q5 -4 11 -243.5t6 -455.5q-97 -9 -238 -5q1 35 1 68zM677 380q-1 34 -2 65q-151 -27 -198 -44l-11 -4q-130 -25 -140.5 -67t6 -84.5t90.5 -64.5q111 -21 169 0q24 9 32 19q32 12 54 180zM46 1300q132 16 377 11
q47 -61 90.5 -99.5t138.5 -110.5q-155 -14 -247 -9q-165 71 -361 207z" />
    <glyph glyph-name="aacute" unicode="&#xe1;" 
d="M612 48q-28 -20 -65 -33q-120 -51 -262 -21q-179 43 -218 151q-3 10 -10 41q-13 93 3 185.5t194 156.5q47 17 242 75l17 6q109 25 79 164l-3 8q-4 12 -30 29q-90 28 -162 2l-7 -2q-77 -17 -62 -119q-194 3 -269 8l3 73q-3 46 42 133q25 62 145 106q71 25 142 26
q333 4 410 -208l6 -16q15 -42 21 -92q3 -19 4 -37q5 -4 11 -243.5t6 -455.5q-97 -9 -238 -5q1 35 1 68zM612 380q-1 34 -2 65q-151 -27 -198 -44l-11 -4q-130 -25 -140.5 -67t6 -84.5t90.5 -64.5q111 -21 169 0q24 9 32 19q32 12 54 180zM855 1322q-195 -136 -361 -207
q-91 -5 -247 9q95 72 138.5 110.5t90.5 99.5q245 5 377 -11z" />
    <glyph glyph-name="acircumflex" unicode="&#xe2;" 
d="M612 48q-28 -20 -65 -33q-120 -51 -262 -21q-179 43 -218 151q-3 10 -10 41q-13 93 3 185.5t194 156.5q47 17 242 75l17 6q109 25 79 164l-3 8q-4 12 -30 29q-90 28 -162 2l-7 -2q-77 -17 -62 -119q-194 3 -269 8l3 73q-3 46 42 133q25 62 145 106q71 25 142 26
q333 4 410 -208l6 -16q15 -42 21 -92q3 -19 4 -37q5 -4 11 -243.5t6 -455.5q-97 -9 -238 -5q1 35 1 68zM612 380q-1 34 -2 65q-151 -27 -198 -44l-11 -4q-130 -25 -140.5 -67t6 -84.5t90.5 -64.5q111 -21 169 0q24 9 32 19q32 12 54 180zM410 1376q-240 -198 -367 -325
l248 20q100 92 201 174q104 -117 158 -197l207 23q-92 119 -318 318z" />
    <glyph glyph-name="atilde" unicode="&#xe3;" 
d="M612 48q-28 -20 -65 -33q-120 -51 -262 -21q-179 43 -218 151q-3 10 -10 41q-13 93 3 185.5t194 156.5q47 17 242 75l17 6q109 25 79 164l-3 8q-4 12 -30 29q-90 28 -162 2l-7 -2q-77 -17 -62 -119q-194 3 -269 8l3 73q-3 46 42 133q25 62 145 106q71 25 142 26
q333 4 410 -208l6 -16q15 -42 21 -92q3 -19 4 -37q5 -4 11 -243.5t6 -455.5q-97 -9 -238 -5q1 35 1 68zM612 380q-1 34 -2 65q-151 -27 -198 -44l-11 -4q-130 -25 -140.5 -67t6 -84.5t90.5 -64.5q111 -21 169 0q24 9 32 19q32 12 54 180zM66 1079l-1 90q-2 169 111 208l8 3
q22 8 49 10q115 10 259 -104.5t194 -96.5q27 9 39 37q11 56 -8 156l115 4l2 -23q6 -71 -10 -174q-23 -91 -80 -111q-5 -1 -22 -5q-165 -6 -304.5 102t-185.5 95l-5 -1q-6 -2 -15 -15q-15 -46 -8 -166l2 -3z" />
    <glyph glyph-name="adieresis" unicode="&#xe4;" 
d="M612 48q-28 -20 -65 -33q-120 -51 -262 -21q-179 43 -218 151q-3 10 -10 41q-13 93 3 185.5t194 156.5q47 17 242 75l17 6q109 25 79 164l-3 8q-4 12 -30 29q-90 28 -162 2l-7 -2q-77 -17 -62 -119q-194 3 -269 8l3 73q-3 46 42 133q25 62 145 106q71 25 142 26
q333 4 410 -208l6 -16q15 -42 21 -92q3 -19 4 -37q5 -4 11 -243.5t6 -455.5q-97 -9 -238 -5q1 35 1 68zM612 380q-1 34 -2 65q-151 -27 -198 -44l-11 -4q-130 -25 -140.5 -67t6 -84.5t90.5 -64.5q111 -21 169 0q24 9 32 19q32 12 54 180zM382 1322q20 -154 0 -233
q-105 -17 -258 -9q0 211 2 246q222 9 256 -4zM767 1316q20 -154 0 -233q-105 -17 -258 -9q0 211 2 246q222 9 256 -4z" />
    <glyph glyph-name="aring" unicode="&#xe5;" 
d="M596.5 1459q60.5 -61 60.5 -148q0 -86 -60.5 -147t-146.5 -61t-146.5 61t-60.5 147q0 87 60.5 148t146.5 61t146.5 -61zM456 1455q-57 0 -97 -43.5t-40 -104.5t40 -104t97 -43t97 43t40 104t-40 104.5t-97 43.5zM612 48q-28 -20 -65 -33q-120 -51 -262 -21
q-179 43 -218 151q-3 10 -10 41q-13 93 3 185.5t194 156.5q47 17 242 75l17 6q109 25 79 164l-3 8q-4 12 -30 29q-90 28 -162 2l-7 -2q-77 -17 -62 -119q-194 3 -269 8l3 73q-3 46 42 133q25 62 145 106q71 25 142 26q333 4 410 -208l6 -16q15 -42 21 -92q3 -19 4 -37
q5 -4 11 -243.5t6 -455.5q-97 -9 -238 -5q1 35 1 68zM612 380q-1 34 -2 65q-151 -27 -198 -44l-11 -4q-130 -25 -140.5 -67t6 -84.5t90.5 -64.5q111 -21 169 0q24 9 32 19q32 12 54 180z" />
    <glyph glyph-name="ae" unicode="&#xe6;" horiz-adv-x="1425" 
d="M1175 567l-18 105q-21 105 -66 119l-22 6q-142 19 -175 -91q-15 -48 -24 -145zM602 444q-144 -26 -190 -43l-11 -4q-130 -25 -140.5 -67t6 -84.5t90.5 -64.5q111 -21 169 0q24 9 32 19q29 11 49 148q-4 49 -5 96zM700 101q-38 -23 -88 -53q-28 -20 -65 -33
q-120 -51 -262 -21q-179 43 -218 151q-3 10 -10 41q-13 93 3 185.5t194 156.5q47 17 242 75l17 6q109 25 79 164l-3 8q-4 12 -30 29q-90 28 -162 2l-7 -2q-77 -17 -62 -119q-194 3 -269 8l3 73q-3 46 42 133q25 62 145 106q71 25 142 26q225 3 333 -93q88 76 255 77
q126 8 211 -17l16 -4q223 -68 202 -586l-550 -27q1 -37 7 -72q25 -117 153 -156q105 -13 147 11q62 34 75 171l168 -2q-13 -336 -297 -338q-187 -12 -265 11q-89 27 -146 89z" />
    <glyph glyph-name="ccedilla" unicode="&#xe7;" horiz-adv-x="905" 
d="M409 -3q-75 2 -118 15q-216 66 -238.5 335.5t36.5 465.5l2 6q61 200 333 202q126 8 211 -17l16 -4q223 -68 207 -386l-238 3l-18 75q-21 85 -66 99l-22 6q-142 19 -175 -91q-54 -175 -29 -341.5t153 -205.5q105 -13 147 11q52 34 75 111q27 88 15 177q120 10 160 6
q18 -52 7 -139q-4 -56 -16 -98l-8 -25q-51 -170 -287 -201q-32 -2 -61 -3l-20 -61q73 -6 97.5 -17.5t42 -30.5t23.5 -58.5t1.5 -73t-27.5 -62.5t-42 -42t-48.5 -16t-66 -1.5t-126.5 42.5l48 81q54 -17 90.5 -17t51 4t27.5 11.5t13 30t-16 42.5t-89 22h-110z" />
    <glyph glyph-name="egrave" unicode="&#xe8;" horiz-adv-x="905" 
d="M303 387q2 -37 7 -72q25 -117 153 -156q105 -13 147 11q62 34 75 171l168 -2q-13 -336 -297 -338q-187 -12 -265 11q-216 66 -238.5 335.5t36.5 465.5l2 6q61 200 333 202q126 8 211 -17l16 -4q223 -68 202 -586zM620 567l-18 105q-21 105 -66 119l-22 6
q-142 19 -175 -91q-15 -48 -24 -145zM47 1300q132 16 377 11q47 -61 90.5 -99.5t138.5 -110.5q-155 -14 -247 -9q-165 71 -361 207z" />
    <glyph glyph-name="eacute" unicode="&#xe9;" horiz-adv-x="905" 
d="M303 387q2 -37 7 -72q25 -117 153 -156q105 -13 147 11q62 34 75 171l168 -2q-13 -336 -297 -338q-187 -12 -265 11q-216 66 -238.5 335.5t36.5 465.5l2 6q61 200 333 202q126 8 211 -17l16 -4q223 -68 202 -586zM620 567l-18 105q-21 105 -66 119l-22 6
q-142 19 -175 -91q-15 -48 -24 -145zM856 1322q-195 -136 -361 -207q-91 -5 -247 9q95 72 138.5 110.5t90.5 99.5q245 5 377 -11z" />
    <glyph glyph-name="ecircumflex" unicode="&#xea;" horiz-adv-x="905" 
d="M303 387q2 -37 7 -72q25 -117 153 -156q105 -13 147 11q62 34 75 171l168 -2q-13 -336 -297 -338q-187 -12 -265 11q-216 66 -238.5 335.5t36.5 465.5l2 6q61 200 333 202q126 8 211 -17l16 -4q223 -68 202 -586zM620 567l-18 105q-21 105 -66 119l-22 6
q-142 19 -175 -91q-15 -48 -24 -145zM411 1376q-240 -198 -367 -325l248 20q100 92 201 174q104 -117 158 -197l207 23q-92 119 -318 318z" />
    <glyph glyph-name="edieresis" unicode="&#xeb;" horiz-adv-x="905" 
d="M303 387q2 -37 7 -72q25 -117 153 -156q105 -13 147 11q62 34 75 171l168 -2q-13 -336 -297 -338q-187 -12 -265 11q-216 66 -238.5 335.5t36.5 465.5l2 6q61 200 333 202q126 8 211 -17l16 -4q223 -68 202 -586zM620 567l-18 105q-21 105 -66 119l-22 6
q-142 19 -175 -91q-15 -48 -24 -145zM382 1322q20 -154 0 -233q-105 -17 -258 -9q0 211 2 246q222 9 256 -4zM767 1316q20 -154 0 -233q-105 -17 -258 -9q0 211 2 246q222 9 256 -4z" />
    <glyph glyph-name="igrave" unicode="&#xec;" horiz-adv-x="374" 
d="M37 946q226 7 261 -6q-4 -107 9 -977l-258 -2q-14 953 -12 985zM-231 1300q132 16 377 11q47 -61 90.5 -99.5t138.5 -110.5q-155 -14 -247 -9q-165 71 -361 207z" />
    <glyph glyph-name="iacute" unicode="&#xed;" horiz-adv-x="374" 
d="M37 946q226 7 261 -6q-4 -107 9 -977l-258 -2q-14 953 -12 985zM578 1322q-195 -136 -361 -207q-91 -5 -247 9q95 72 138.5 110.5t90.5 99.5q245 5 377 -11z" />
    <glyph glyph-name="icircumflex" unicode="&#xee;" horiz-adv-x="374" 
d="M37 946q226 7 261 -6q-4 -107 9 -977l-258 -2q-14 953 -12 985zM132 1376q-240 -198 -367 -325l248 20q100 92 201 174q104 -117 158 -197l207 23q-92 119 -318 318z" />
    <glyph glyph-name="idieresis" unicode="&#xef;" horiz-adv-x="374" 
d="M37 946q226 7 261 -6q-4 -107 9 -977l-258 -2q-14 953 -12 985zM104 1322q20 -154 0 -233q-105 -17 -258 -9q0 211 2 246q222 9 256 -4zM489 1316q20 -154 0 -233q-105 -17 -258 -9q0 211 2 246q222 9 256 -4z" />
    <glyph glyph-name="eth" unicode="&#xf0;" 
d="M412 691l-11 -4q-70 -25 -104 -79q-57 -170 -13 -353q19 -52 73 -74q111 -21 169 0q24 9 32 19q40 15 52 408q-88 92 -198 83zM840 938q0 -41 -4 -65q0 -71 -17 -429.5t-192 -428.5q-140 -51 -342 -21q-179 43 -218 151q-3 10 -10 41q-43 299 9 529q10 119 188 183
q47 17 170 8t208 -75q2 106 -2 107h-227v169l206 4q-7 30 -17 52l-3 8q-4 12 -30 29q-90 28 -162 22l-6 205q333 4 410 -208l6 -16q15 -41 21 -89l159 3v-179h-147z" />
    <glyph glyph-name="ntilde" unicode="&#xf1;" horiz-adv-x="940" 
d="M281 -10l-259 4q23 880 25 997q35 13 261 4q2 -33 5 -75q28 26 64 41q65 27 170 30q147 -3 215.5 -70t98 -187t24.5 -250q-1 -15 -20 -490h-254q24 570 -11 666l-7 20q-32 91 -195 50l-11 -4q-13 -5 -12 -7q-49 -17 -71 -165q-2 -15 -4 -29q-1 -37 -19 -535zM70 1079
l-1 90q-2 169 111 208l8 3q22 8 49 10q115 10 259 -104.5t194 -96.5q27 9 39 37q11 56 -8 156l115 4l2 -23q6 -71 -10 -174q-23 -91 -80 -111q-5 -1 -22 -5q-165 -6 -304.5 102t-185.5 95l-5 -1q-6 -2 -15 -15q-15 -46 -8 -166l2 -3z" />
    <glyph glyph-name="ograve" unicode="&#xf2;" horiz-adv-x="956" 
d="M695 961q161 -57 179 -264q39 -208 26 -276q-14 -150 -38 -219q-65 -183 -320 -190q-184 -7 -274 25q-107 52 -165.5 184t-64.5 262.5t36 246.5l11 31q40 113 171 194q143 58 298 36q64 -3 141 -30zM310 680l-7 -20q-41 -114 -25 -245t49 -150q23 -26 56 -38
q109 -31 202 13q40 34 51 67q35 98 13 246.5t-71 165.5q1 2 -12 7l-11 4q-213 41 -245 -50zM67 1300q132 16 377 11q47 -61 90.5 -99.5t138.5 -110.5q-155 -14 -247 -9q-165 71 -361 207z" />
    <glyph glyph-name="oacute" unicode="&#xf3;" horiz-adv-x="956" 
d="M695 961q161 -57 179 -264q39 -208 26 -276q-14 -150 -38 -219q-65 -183 -320 -190q-184 -7 -274 25q-107 52 -165.5 184t-64.5 262.5t36 246.5l11 31q40 113 171 194q143 58 298 36q64 -3 141 -30zM310 680l-7 -20q-41 -114 -25 -245t49 -150q23 -26 56 -38
q109 -31 202 13q40 34 51 67q35 98 13 246.5t-71 165.5q1 2 -12 7l-11 4q-213 41 -245 -50zM876 1322q-195 -136 -361 -207q-91 -5 -247 9q95 72 138.5 110.5t90.5 99.5q245 5 377 -11z" />
    <glyph glyph-name="ocircumflex" unicode="&#xf4;" horiz-adv-x="956" 
d="M695 961q161 -57 179 -264q39 -208 26 -276q-14 -150 -38 -219q-65 -183 -320 -190q-184 -7 -274 25q-107 52 -165.5 184t-64.5 262.5t36 246.5l11 31q40 113 171 194q143 58 298 36q64 -3 141 -30zM310 680l-7 -20q-41 -114 -25 -245t49 -150q23 -26 56 -38
q109 -31 202 13q40 34 51 67q35 98 13 246.5t-71 165.5q1 2 -12 7l-11 4q-213 41 -245 -50zM430 1376q-240 -198 -367 -325l248 20q100 92 201 174q104 -117 158 -197l207 23q-92 119 -318 318z" />
    <glyph glyph-name="otilde" unicode="&#xf5;" horiz-adv-x="956" 
d="M695 961q161 -57 179 -264q39 -208 26 -276q-14 -150 -38 -219q-65 -183 -320 -190q-184 -7 -274 25q-107 52 -165.5 184t-64.5 262.5t36 246.5l11 31q40 113 171 194q143 58 298 36q64 -3 141 -30zM310 680l-7 -20q-41 -114 -25 -245t49 -150q23 -26 56 -38
q109 -31 202 13q40 34 51 67q35 98 13 246.5t-71 165.5q1 2 -12 7l-11 4q-213 41 -245 -50zM86 1079l-1 90q-2 169 111 208l8 3q22 8 49 10q115 10 259 -104.5t194 -96.5q27 9 39 37q11 56 -8 156l115 4l2 -23q6 -71 -10 -174q-23 -91 -80 -111q-5 -1 -22 -5
q-165 -6 -304.5 102t-185.5 95l-5 -1q-6 -2 -15 -15q-15 -46 -8 -166l2 -3z" />
    <glyph glyph-name="odieresis" unicode="&#xf6;" horiz-adv-x="956" 
d="M695 961q161 -57 179 -264q39 -208 26 -276q-14 -150 -38 -219q-65 -183 -320 -190q-184 -7 -274 25q-107 52 -165.5 184t-64.5 262.5t36 246.5l11 31q40 113 171 194q143 58 298 36q64 -3 141 -30zM310 680l-7 -20q-41 -114 -25 -245t49 -150q23 -26 56 -38
q109 -31 202 13q40 34 51 67q35 98 13 246.5t-71 165.5q1 2 -12 7l-11 4q-213 41 -245 -50zM402 1322q20 -154 0 -233q-105 -17 -258 -9q0 211 2 246q222 9 256 -4zM787 1316q20 -154 0 -233q-105 -17 -258 -9q0 211 2 246q222 9 256 -4z" />
    <glyph glyph-name="divide" unicode="&#xf7;" horiz-adv-x="787" 
d="M739 740q5 -125 -4 -220q-26 -6 -299 2t-362 -2q-7 26 3 216l2 4q5 7 660 0zM530 349q20 -154 0 -233q-105 -17 -258 -9q0 211 2 246q222 9 256 -4zM530 1149q20 -154 0 -233q-105 -17 -258 -9q0 211 2 246q222 9 256 -4z" />
    <glyph glyph-name="oslash" unicode="&#xf8;" horiz-adv-x="956" 
d="M525 735q-185 29 -215 -55l-7 -20q-41 -114 -25 -245q8 -67 21 -104zM641 599l-213 -382q84 -12 157 23q40 34 51 67q35 98 13 247q-4 24 -8 45zM653 974l31 58h87q36 -3 111 -2l-79 -141q60 -70 71 -192q39 -208 26 -276q-14 -150 -38 -219q-65 -183 -320 -190
q-137 -5 -222 11l-36 -64l-174 -6l-2 1l76 143q-48 49 -81 124q-59 132 -65 262.5t36 246.5l11 31q40 113 171 194q143 58 298 36q46 -2 99 -17z" />
    <glyph glyph-name="ugrave" unicode="&#xf9;" horiz-adv-x="940" 
d="M622 1003l259 3q2 -880 4 -997q-35 -14 -261 -11q-3 33 -7 74q-28 -26 -63 -42q-64 -29 -169 -35q-147 -2 -217.5 63t-103.5 184.5t-32 249.5q0 15 6 490l254 7q-7 -570 30 -665l8 -20q34 -90 196 -44l11 4q13 6 12 8q48 18 66 167q2 15 3 29q0 37 4 535zM55 1300
q132 16 377 11q47 -61 90.5 -99.5t138.5 -110.5q-155 -14 -247 -9q-165 71 -361 207z" />
    <glyph glyph-name="uacute" unicode="&#xfa;" horiz-adv-x="940" 
d="M622 1003l259 3q2 -880 4 -997q-35 -14 -261 -11q-3 33 -7 74q-28 -26 -63 -42q-64 -29 -169 -35q-147 -2 -217.5 63t-103.5 184.5t-32 249.5q0 15 6 490l254 7q-7 -570 30 -665l8 -20q34 -90 196 -44l11 4q13 6 12 8q48 18 66 167q2 15 3 29q0 37 4 535zM864 1322
q-195 -136 -361 -207q-91 -5 -247 9q95 72 138.5 110.5t90.5 99.5q245 5 377 -11z" />
    <glyph glyph-name="ucircumflex" unicode="&#xfb;" horiz-adv-x="940" 
d="M622 1003l259 3q2 -880 4 -997q-35 -14 -261 -11q-3 33 -7 74q-28 -26 -63 -42q-64 -29 -169 -35q-147 -2 -217.5 63t-103.5 184.5t-32 249.5q0 15 6 490l254 7q-7 -570 30 -665l8 -20q34 -90 196 -44l11 4q13 6 12 8q48 18 66 167q2 15 3 29q0 37 4 535zM418 1376
q-240 -198 -367 -325l248 20q100 92 201 174q104 -117 158 -197l207 23q-92 119 -318 318z" />
    <glyph glyph-name="udieresis" unicode="&#xfc;" horiz-adv-x="940" 
d="M622 1003l259 3q2 -880 4 -997q-35 -14 -261 -11q-3 33 -7 74q-28 -26 -63 -42q-64 -29 -169 -35q-147 -2 -217.5 63t-103.5 184.5t-32 249.5q0 15 6 490l254 7q-7 -570 30 -665l8 -20q34 -90 196 -44l11 4q13 6 12 8q48 18 66 167q2 15 3 29q0 37 4 535zM390 1322
q20 -154 0 -233q-105 -17 -258 -9q0 211 2 246q222 9 256 -4zM775 1316q20 -154 0 -233q-105 -17 -258 -9q0 211 2 246q222 9 256 -4z" />
    <glyph glyph-name="yacute" unicode="&#xfd;" horiz-adv-x="993" 
d="M398 -2q-356 947 -361 984l2 1q216 38 273 36q123 -382 203 -625l1 -3l3 1l211 626l3 1q165 2 209 -6l2 -3q-324 -1113 -402 -1278.5t-282 -167.5l-160 -2l8 242q49 -25 196 4q3 1 27 19q29 37 67 171zM896 1322q-195 -136 -361 -207q-91 -5 -247 9q95 72 138.5 110.5
t90.5 99.5q245 5 377 -11z" />
    <glyph glyph-name="thorn" unicode="&#xfe;" horiz-adv-x="999" 
d="M316 486q2 -14 4 -29q22 -148 71 -165q-1 -2 12 -7l11 -4q213 -41 245 50l7 20q41 114 25 245t-49 150q-23 26 -56 38q-109 31 -202 -13q-40 -34 -51 -67q-14 -38 -19 -84zM315 921q72 74 208 78q156 7 233 -25q91 -52 140.5 -184t54.5 -262.5t-30 -246.5l-10 -31
q-34 -113 -145 -194q-122 -58 -253 -36q-55 3 -120 30q-36 15 -64 41q7 -472 5 -505q-226 -9 -261 4q-20 964 -20 1897q107 17 263 9q-1 -529 -1 -575z" />
    <glyph glyph-name="ydieresis" unicode="&#xff;" horiz-adv-x="993" 
d="M398 -2q-356 947 -361 984l2 1q216 38 273 36q123 -382 203 -625l1 -3l3 1l211 626l3 1q165 2 209 -6l2 -3q-324 -1113 -402 -1278.5t-282 -167.5l-160 -2l8 242q49 -25 196 4q3 1 27 19q29 37 67 171zM422 1322q20 -154 0 -233q-105 -17 -258 -9q0 211 2 246
q222 9 256 -4zM807 1316q20 -154 0 -233q-105 -17 -258 -9q0 211 2 246q222 9 256 -4z" />
    <glyph glyph-name="OE" unicode="&#x152;" horiz-adv-x="1551" 
d="M365 1074l-8 -20q-45 -114 -9 -609q21 -167 57 -186q25 -26 61 -38q97 -31 198 13q43 34 55 67q38 98 4 653q-13 142 -67 159q1 2 -13 7l-12 4q-232 41 -266 -50zM773 75q-83 -59 -225 -63q-184 -7 -274 25q-147 52 -189 247q-35 129 -42 357q-5 373 37 489l11 31
q40 113 171 194q143 58 298 36q64 -3 141 -30q31 -11 56 -27l-2 53l1 2q107 8 495 14q193 12 227 0q-5 -205 3 -320q-172 -1 -426 -18q6 -233 11 -278q188 14 367 -6q25 -1 58 0q4 -19 -1 -179q-12 -14 -189 -11q-266 -20 -311 -30q-14 -179 -7 -327h285q122 9 259 2
q0 -61 -24 -215q-142 -3 -730 -33v87z" />
    <glyph glyph-name="oe" unicode="&#x153;" horiz-adv-x="1508" 
d="M350 680l-7 -20q-41 -114 -25 -245t49 -150q23 -26 56 -38q109 -31 202 13q40 34 51 67q35 98 13 246.5t-71 165.5q1 2 -12 7l-11 4q-213 41 -245 -50zM1235 567l-18 105q-21 105 -66 119l-22 6q-142 19 -175 -91q-14 -48 -23 -145zM779 83q-85 -67 -237 -71
q-184 -7 -274 25q-107 52 -165.5 184t-64.5 262.5t36 246.5l11 31q40 113 171 194q143 58 298 36q64 -3 141 -30q39 -14 70 -36q87 95 274 96q126 8 211 -17l16 -4q223 -68 202 -586l-550 -27q2 -37 7 -72q25 -117 153 -156q105 -13 147 11q62 34 75 171l168 -2
q-13 -336 -297 -338q-187 -12 -265 11q-75 23 -127 71z" />
    <glyph glyph-name="Scaron" unicode="&#x160;" 
d="M634 1401q120 -44 145 -106q45 -87 42 -133q10 -88 13 -283q-75 -5 -269 -8q-7 72 -11 221q2 85 -61 108l-7 2q-72 26 -162 -2q-26 -17 -30 -29l-3 -8q-29 -83 -5 -260q15 -59 84 -84l17 -6q195 -58 242 -75q178 -64 188 -183q22 -136 9 -369q-7 -31 -10 -41
q-39 -108 -218 -151q-202 -30 -342 21q-152 55 -166 231q-18 160 -12 177q175 3 198 0l2 -1q-7 -202 47 -222q8 -10 32 -19q58 -21 169 0q54 22 73 74q34 93 -13 193q-34 54 -104 79l-11 4q-52 19 -233 50l-15 5q-139 50 -174 278q-13 60 6 247q6 50 21 92l6 16
q77 212 410 208q71 -1 142 -26zM511 1483q240 198 367 325l-248 -20q-100 -92 -201 -174q-104 117 -158 197l-207 -23q92 -119 318 -318z" />
    <glyph glyph-name="scaron" unicode="&#x161;" 
d="M481 1061q240 198 367 325l-248 -20q-100 -92 -201 -174q-104 117 -158 197l-207 -23q92 -119 318 -318zM634 1011q120 -44 145 -106q45 -87 42 -133l3 -73q-75 -5 -269 -8q15 102 -62 119l-7 2q-72 26 -162 -2q-26 -17 -30 -29l-3 -8q-30 -139 79 -164l17 -6
q195 -58 242 -75q178 -64 194 -156.5t3 -185.5q-7 -31 -10 -41q-39 -108 -218 -151q-202 -30 -342 21q-152 55 -166 231q-8 50 -2 67q175 3 198 0l2 -1q-17 -92 37 -112q8 -10 32 -19q58 -21 169 0q74 22 90.5 64.5t6 84.5t-140.5 67l-11 4q-52 19 -233 50l-15 5
q-199 50 -168 265q6 50 21 92l6 16q77 212 410 208q71 -1 142 -26z" />
    <glyph glyph-name="Ydieresis" unicode="&#x178;" horiz-adv-x="1018" 
d="M384 737q-122 225 -189 363q-68 139 -144 285q226 49 261 46q106 -255 230 -488q123 223 249 488q34 13 171 -6q2 -35 -137 -327q-67 -124 -185 -357q16 -642 16 -731q-107 -17 -263 -9q7 438 -9 736zM473 1779q20 -154 0 -233q-105 -17 -258 -9q0 211 2 246
q222 9 256 -4zM858 1773q20 -154 0 -233q-105 -17 -258 -9q0 211 2 246q222 9 256 -4z" />
    <glyph glyph-name="Zcaron" unicode="&#x17d;" horiz-adv-x="1004" 
d="M627 1117q-14 5 -591 -32l-2 1q-10 114 -7 249q32 8 267 15t651 9l18 -186q-10 -4 -667 -942q333 12 667 36l2 -256q-436 1 -563 -3t-365 -3q-3 124 -3 248l2 1zM556 1448q240 198 367 325l-248 -20q-100 -92 -201 -174q-104 117 -158 197l-207 -23q92 -119 318 -318z
" />
    <glyph glyph-name="zcaron" unicode="&#x17e;" horiz-adv-x="820" 
d="M426 1061q240 198 367 325l-248 -20q-100 -92 -201 -174q-104 117 -158 197l-207 -23q92 -119 318 -318zM428 775q-14 5 -391 -22l-2 1q-10 114 -7 249q32 8 147 10t531 4l18 -186q-10 -4 -458 -600q363 12 477 36l2 -256q-216 1 -343 -3t-365 -3q-3 124 -3 248l2 1z" />
    <glyph glyph-name="florin" unicode="&#x192;" horiz-adv-x="770" 
d="M209 1033q0 16 1 26q-9 355 189 422q36 12 99.5 22t203.5 2l-8 -202q-49 25 -136 -4q-3 -1 -27 -19q-29 -37 -36 -234v-22q206 -7 214 -8q0 -158 -7 -182q-99 4 -212 8q-8 -432 -24 -1111q1 -131 -2 -143h-287q6 200 24 970q2 164 4 294q-74 2 -153 5l3 181q82 -3 154 -5
z" />
    <glyph glyph-name="circumflex" unicode="&#x2c6;" horiz-adv-x="1014" 
d="M475 1376q-240 -198 -367 -325l248 20q100 92 201 174q104 -117 158 -197l207 23q-92 119 -318 318z" />
    <glyph glyph-name="tilde" unicode="&#x2dc;" horiz-adv-x="898" 
d="M74 1079l-1 90q-2 169 111 208l8 3q22 8 49 10q115 10 259 -104.5t194 -96.5q27 9 39 37q11 56 -8 156l115 4l2 -23q6 -71 -10 -174q-23 -91 -80 -111q-5 -1 -22 -5q-165 -6 -304.5 102t-185.5 95l-5 -1q-6 -2 -15 -15q-15 -46 -8 -166l2 -3z" />
    <glyph glyph-name="endash" unicode="&#x2013;" horiz-adv-x="1108" 
d="M56 419v120h996v-120h-996z" />
    <glyph glyph-name="emdash" unicode="&#x2014;" horiz-adv-x="2048" 
d="M0 419v120h2048v-120h-2048z" />
    <glyph glyph-name="quoteleft" unicode="&#x2018;" horiz-adv-x="374" 
d="M336 1417q-62 -138 -48 -376q-146 -3 -253 3q0 162 130 372q35 4 171 1z" />
    <glyph glyph-name="quoteright" unicode="&#x2019;" horiz-adv-x="374" 
d="M35 1041q62 139 48 377q146 3 253 -4q0 -161 -130 -372q-35 -4 -171 -1z" />
    <glyph glyph-name="quotesinglbase" unicode="&#x201a;" horiz-adv-x="374" 
d="M35 -164q62 139 48 377q146 3 253 -4q0 -161 -130 -372q-35 -4 -171 -1z" />
    <glyph glyph-name="quotedblleft" unicode="&#x201c;" horiz-adv-x="795" 
d="M336 1417q-62 -138 -48 -376q-146 -3 -253 3q0 162 130 372q35 4 171 1zM757 1417q-62 -138 -48 -376q-146 -3 -253 3q0 162 130 372q35 4 171 1z" />
    <glyph glyph-name="quotedblright" unicode="&#x201d;" horiz-adv-x="795" 
d="M35 1041q62 139 48 377q146 3 253 -4q0 -161 -130 -372q-35 -4 -171 -1zM456 1041q62 139 48 377q146 3 253 -4q0 -161 -130 -372q-35 -4 -171 -1z" />
    <glyph glyph-name="quotedblbase" unicode="&#x201e;" horiz-adv-x="795" 
d="M35 -188q62 139 48 377q146 3 253 -4q0 -161 -130 -372q-35 -4 -171 -1zM456 -188q62 139 48 377q146 3 253 -4q0 -161 -130 -372q-35 -4 -171 -1z" />
    <glyph glyph-name="guilsinglleft" unicode="&#x2039;" horiz-adv-x="993" 
d="M905 306q-28 1 -838 270q-6 10 -6 216l1 2q364 120 863 297h2q6 -33 4 -153l-1 -3l-588 -249l-1 -2l2 -1q309 -98 589 -173q1 -41 -27 -201v-3z" />
    <glyph glyph-name="guilsinglright" unicode="&#x203a;" horiz-adv-x="993" 
d="M89 1091q27 -1 837 -269q6 -10 6 -217l-1 -2q-364 -119 -863 -297l-2 1q-6 33 -4 153l1 2l588 250l1 2l-2 1q-309 98 -589 173q-1 41 27 201z" />
    <glyph glyph-name="Euro" unicode="&#x20ac;" horiz-adv-x="1050" 
d="M445 494q33 -285 148 -321q103 -13 144 11q51 34 74 111q26 88 15 287q117 10 156 6q18 -52 7 -249q-3 -56 -16 -98l-7 -25q-51 -170 -282 -201q-183 -12 -259 11q-212 66 -219 446q-1 13 -2 25q-94 -1 -161 -6q-9 21 4 169l2 3q4 3 146 4q-1 18 -1 35q-90 -2 -154 -6
q-9 21 4 169l2 3q4 3 145 4q2 232 36 345l2 6q59 200 325 202q124 8 208 -17l15 -4q219 -68 204 -516l-234 3l-18 205q-21 85 -65 99l-21 6q-139 19 -172 -91q-27 -90 -34 -237l194 -5q6 -98 -6 -172q-27 -4 -191 3q1 -15 1 -31l199 -5q6 -97 -6 -172q-27 -4 -183 3z" />
    <glyph glyph-name="trademark" unicode="&#x2122;" horiz-adv-x="990" 
d="M449 1434l-1 -78q-4 -2 -65 -2l-93 -4q-5 -246 3 -370q-1 -1 1 -144q-31 -3 -90 -2q-1 -1 -22 -1q-3 29 -1 110q4 118 -5 244l-5 131q-6 1 -140 3h-1q0 50 -3 99q14 4 106 3q120 2 316 11zM921 1398q8 -28 21 -190.5t19 -299.5q3 -14 1 -21q-39 -5 -109 -15
q-18 265 -21 311q-23 -69 -66 -226q-45 -2 -84 -6q-14 25 -52.5 123t-65.5 149q0 -23 10 -180q12 -82 9 -166q-33 -6 -99 -14q-5 1 -7 117q-16 269 -18 447q47 5 147 7q33 -68 97 -219q33 -74 35 -75l5 17q36 135 72 241q18 4 106 0z" />
  </font>
</defs>
</svg>
